<svg width="218" height="231" viewBox="0 0 218 231" fill="none" xmlns="http://www.w3.org/2000/svg">
<path d="M122.585 170.384L124.568 177.046L136.526 217.127L142.811 215.285L129.982 173.386L129.023 170.231L122.585 170.384Z" fill="#6B81BE"/>
<path d="M122.585 170.384L124.568 177.046L129.982 173.386L129.023 170.231L122.585 170.384Z" fill="#404B7C"/>
<path d="M127.487 170.384L125.504 177.046L113.54 217.127L107.261 215.285L120.09 173.386L121.049 170.231L127.487 170.384Z" fill="#6B81BE"/>
<path d="M127.487 170.384L125.504 177.046L120.09 173.386L121.049 170.231L127.487 170.384Z" fill="#404B7C"/>
<path d="M197.462 170.384L199.451 177.046L211.409 217.127L217.688 215.285L204.86 173.386L203.9 170.231L197.462 170.384Z" fill="#6B81BE"/>
<path d="M197.462 170.384L199.451 177.046L204.86 173.386L203.9 170.231L197.462 170.384Z" fill="#404B7C"/>
<path d="M202.364 170.384L200.381 177.046L188.423 217.127L182.138 215.285L194.967 173.386L195.932 170.231L202.364 170.384Z" fill="#6B81BE"/>
<path d="M202.364 170.384L200.381 177.046L194.967 173.386L195.932 170.231L202.364 170.384Z" fill="#404B7C"/>
<path d="M212.08 173.144L115.229 171.614V154.601L212.08 153.071V173.144Z" fill="#F68D88"/>
<path d="M115.229 154.601V163.199L122.614 154.484L115.229 154.601Z" fill="#6B81BE"/>
<path d="M136.543 154.266L121.39 171.708L132.118 171.879L147.883 154.084L136.543 154.266Z" fill="#6B81BE"/>
<path d="M163.154 153.842L146.542 172.109L158.299 172.297L175.618 153.648L163.154 153.842Z" fill="#6B81BE"/>
<path d="M192.431 153.383L174.141 172.544L187.076 172.75L206.184 153.166L192.431 153.383Z" fill="#6B81BE"/>
<path d="M212.08 165.529L204.554 173.027L212.08 173.144V165.529Z" fill="#6B81BE"/>
<path d="M114.37 227.078C113.25 227.05 112.162 226.703 111.233 226.078C109.838 226.866 107.761 227.155 105.219 225.925C105.166 225.892 105.128 225.84 105.111 225.781C105.094 225.721 105.099 225.657 105.126 225.601C105.153 225.545 105.199 225.501 105.257 225.477C105.314 225.453 105.378 225.451 105.437 225.472C107.691 226.566 109.556 226.378 110.809 225.736C110.312 225.286 110 224.668 109.933 224C109.888 223.576 109.963 223.148 110.148 222.763C110.333 222.379 110.621 222.053 110.98 221.823C111.22 221.681 111.496 221.614 111.774 221.631C112.052 221.648 112.319 221.748 112.54 221.917C113.334 222.506 113.446 223.547 112.816 224.583C112.523 225.046 112.141 225.446 111.692 225.76C112.022 225.963 112.373 226.129 112.74 226.254C114.505 226.878 116.082 226.501 117.059 225.23C117.361 224.834 117.581 224.382 117.706 223.9C117.386 223.838 117.073 223.746 116.771 223.624C115.046 222.935 114.911 221.958 114.935 221.57C114.953 221.299 115.055 221.04 115.227 220.829C115.399 220.618 115.632 220.466 115.894 220.393C116.275 220.32 116.67 220.37 117.021 220.538C117.371 220.705 117.659 220.98 117.842 221.323C118.248 221.964 118.411 222.731 118.301 223.482C120.749 223.683 122.579 221.752 122.597 221.717C122.643 221.668 122.706 221.639 122.774 221.637C122.841 221.635 122.906 221.659 122.956 221.705C123.005 221.751 123.034 221.815 123.036 221.882C123.038 221.95 123.013 222.015 122.967 222.064C122.967 222.064 120.919 224.206 118.212 223.971C118.074 224.539 117.819 225.072 117.465 225.536C117.109 226.021 116.643 226.414 116.104 226.682C115.566 226.95 114.971 227.086 114.37 227.078ZM111.692 222.129C111.529 222.131 111.368 222.176 111.227 222.258C110.951 222.438 110.731 222.692 110.592 222.99C110.453 223.289 110.399 223.62 110.439 223.947C110.471 224.242 110.561 224.527 110.703 224.786C110.846 225.046 111.038 225.275 111.268 225.46C111.72 225.165 112.101 224.775 112.387 224.318C112.769 223.683 112.934 222.823 112.245 222.317C112.088 222.197 111.896 222.131 111.698 222.129H111.692ZM116.265 220.858C116.185 220.859 116.106 220.871 116.029 220.893C115.868 220.938 115.725 221.032 115.62 221.161C115.514 221.291 115.452 221.45 115.441 221.617C115.411 222.206 115.976 222.794 116.959 223.176C117.231 223.285 117.513 223.368 117.801 223.424C117.895 222.796 117.761 222.155 117.424 221.617C117.306 221.407 117.14 221.229 116.94 221.097C116.739 220.965 116.509 220.883 116.27 220.858H116.265Z" fill="#D2E4F0"/>
<path d="M178.49 220.764C177.754 220.764 175.465 220.623 173.935 218.934C173.448 219.258 172.899 219.479 172.323 219.581C170.51 219.899 168.91 218.992 167.921 217.145C167.678 216.703 167.497 216.23 167.385 215.738C165.826 215.373 164.102 214.179 163.066 211.554C163.051 211.523 163.043 211.489 163.042 211.454C163.041 211.419 163.047 211.385 163.06 211.353C163.073 211.32 163.093 211.291 163.117 211.267C163.142 211.242 163.171 211.223 163.204 211.211C163.236 211.198 163.271 211.192 163.305 211.194C163.34 211.195 163.374 211.204 163.405 211.219C163.436 211.234 163.464 211.255 163.487 211.282C163.51 211.308 163.527 211.339 163.537 211.372C164.455 213.726 165.944 214.82 167.309 215.203C167.249 214.534 167.44 213.867 167.844 213.331C168.099 212.99 168.443 212.726 168.839 212.569C169.235 212.412 169.667 212.368 170.087 212.443C170.359 212.501 170.608 212.64 170.801 212.841C170.994 213.043 171.123 213.298 171.169 213.573C171.364 214.538 170.734 215.385 169.569 215.726C169.037 215.875 168.48 215.915 167.933 215.844C168.037 216.218 168.183 216.58 168.368 216.921C169.245 218.575 170.651 219.369 172.234 219.092C172.724 219.007 173.192 218.825 173.611 218.557C173.419 218.295 173.251 218.015 173.111 217.721C172.311 216.05 172.876 215.238 173.152 214.961C173.349 214.77 173.601 214.645 173.873 214.605C174.144 214.565 174.421 214.611 174.665 214.738C174.996 214.942 175.253 215.247 175.397 215.609C175.541 215.97 175.565 216.368 175.465 216.744C175.327 217.491 174.927 218.163 174.335 218.639C176.012 220.44 178.655 220.264 178.684 220.264C178.751 220.259 178.817 220.281 178.868 220.325C178.919 220.369 178.95 220.432 178.955 220.499C178.96 220.566 178.937 220.632 178.893 220.683C178.849 220.734 178.787 220.765 178.719 220.77H178.484L178.49 220.764ZM174.041 215.085C173.835 215.084 173.636 215.164 173.488 215.309C173.07 215.715 173.094 216.533 173.547 217.486C173.673 217.751 173.825 218.003 174 218.239C174.495 217.842 174.831 217.28 174.947 216.656C175.027 216.385 175.018 216.095 174.923 215.829C174.828 215.563 174.651 215.333 174.418 215.173C174.301 215.114 174.172 215.084 174.041 215.085ZM167.815 215.309C168.346 215.397 168.89 215.369 169.41 215.226C170.122 215.014 170.828 214.496 170.657 213.655C170.629 213.475 170.547 213.307 170.42 213.176C170.294 213.044 170.13 212.955 169.951 212.919C169.627 212.865 169.293 212.902 168.988 213.026C168.684 213.151 168.42 213.359 168.227 213.626C168.053 213.866 167.929 214.139 167.862 214.428C167.794 214.717 167.784 215.016 167.833 215.309H167.815Z" fill="#D2E4F0"/>
<path d="M192.531 212.26H192.225C192.159 212.257 192.097 212.228 192.052 212.18C192.006 212.132 191.982 212.067 191.984 212.001C191.984 211.968 191.992 211.936 192.005 211.906C192.019 211.876 192.038 211.849 192.062 211.826C192.086 211.804 192.115 211.786 192.146 211.775C192.177 211.764 192.21 211.758 192.243 211.76C194.314 211.831 195.679 211.089 196.444 210.183C195.919 209.992 195.479 209.621 195.203 209.135C195.02 208.815 194.93 208.45 194.942 208.081C194.955 207.712 195.069 207.354 195.273 207.046C195.415 206.848 195.613 206.696 195.841 206.611C196.07 206.526 196.319 206.512 196.556 206.57C197.392 206.752 197.851 207.547 197.733 208.588C197.67 209.04 197.52 209.476 197.292 209.871C197.599 209.903 197.908 209.903 198.216 209.871C199.787 209.753 200.87 208.935 201.158 207.629C201.251 207.244 201.271 206.845 201.217 206.452C200.958 206.509 200.694 206.543 200.428 206.552C198.834 206.611 198.38 205.875 198.257 205.558C198.177 205.331 198.168 205.086 198.231 204.855C198.294 204.624 198.426 204.417 198.61 204.263C198.887 204.069 199.219 203.97 199.557 203.979C199.895 203.989 200.221 204.107 200.487 204.316C201.022 204.669 201.414 205.201 201.593 205.816C202.202 205.551 202.752 205.168 203.211 204.688C203.669 204.208 204.028 203.641 204.265 203.021C204.274 202.987 204.289 202.956 204.311 202.928C204.332 202.9 204.36 202.878 204.39 202.861C204.421 202.844 204.455 202.834 204.49 202.832C204.525 202.829 204.56 202.833 204.593 202.845C204.626 202.856 204.656 202.874 204.682 202.898C204.708 202.922 204.728 202.951 204.742 202.983C204.756 203.015 204.763 203.049 204.763 203.084C204.763 203.119 204.756 203.154 204.742 203.186C204.742 203.186 203.894 205.54 201.711 206.305C201.789 206.79 201.769 207.287 201.652 207.764C201.276 209.294 200.028 210.254 198.227 210.389C197.805 210.426 197.379 210.407 196.962 210.33C196.174 211.348 194.744 212.26 192.531 212.26ZM196.256 207.029C196.14 207.028 196.026 207.056 195.924 207.109C195.821 207.162 195.733 207.24 195.668 207.335C195.52 207.564 195.439 207.829 195.433 208.101C195.426 208.373 195.495 208.641 195.632 208.877C195.876 209.299 196.275 209.61 196.744 209.742C196.983 209.369 197.14 208.95 197.203 208.512C197.28 207.923 197.121 207.199 196.438 207.046C196.376 207.034 196.313 207.028 196.25 207.029H196.256ZM199.434 204.463C199.252 204.459 199.075 204.519 198.934 204.634C198.828 204.718 198.752 204.833 198.717 204.963C198.681 205.093 198.687 205.231 198.733 205.357C198.904 205.805 199.522 206.052 200.411 206.028C200.644 206.02 200.877 205.99 201.105 205.94C200.961 205.445 200.649 205.016 200.222 204.728C199.987 204.568 199.712 204.476 199.428 204.463H199.434Z" fill="#D2E4F0"/>
<path d="M195.526 218.58L208.02 219.234L207.631 222.947L193.843 221.799L195.526 218.58Z" fill="#ECBDBB"/>
<path d="M215.676 217.662L207.631 222.947L208.02 219.234L215.676 216.209V217.662Z" fill="#F68D88"/>
<path d="M195.526 218.58L209.626 215.132L215.676 216.209L208.02 219.234L195.526 218.58Z" fill="#F9D4D4"/>
<path d="M175.377 224.253L173.229 225.936L174.688 226.937L184.11 226.778L186.258 224.942L184.645 223.718L175.377 224.253Z" fill="#F68D88"/>
<path d="M174.994 223.335L175.377 224.253L173.229 225.936L173.841 223.871L174.994 223.335Z" fill="#ECBDBB"/>
<path d="M184.645 223.718L182.809 222.87L174.994 223.335L175.377 224.253L184.645 223.718Z" fill="#F9D4D4"/>
<path d="M162.889 204.051L171.01 206.652L182.756 205.175L174.382 203.18L162.889 204.051Z" fill="#F9D4D4"/>
<path d="M170.546 208.288L171.01 206.652L182.756 205.175L182.397 207.011L170.546 208.288Z" fill="#F68D88"/>
<path d="M162.86 204.051L161.736 205.94C161.736 205.94 170.422 208.394 170.522 208.294C170.709 207.759 170.862 207.212 170.981 206.658L162.86 204.051Z" fill="#ECBDBB"/>
<path d="M146.383 206.705C146.383 206.705 145.312 208.7 145.465 208.7L156.446 208.853L153.533 206.758L146.383 206.705Z" fill="#F68D88"/>
<path d="M148.737 205.581L153.286 205.834L153.539 206.758L146.389 206.705L148.737 205.581Z" fill="#F9D4D4"/>
<path d="M156.452 208.853L153.286 205.834L153.539 206.758L156.452 208.853Z" fill="#ECBDBB"/>
<path d="M125.315 217.168L130.064 220.846L139.162 220.128L138.903 216.809L135.89 216.25L125.315 217.168Z" fill="#F9D4D4"/>
<path d="M125.109 219.11L125.315 217.168L130.064 220.846L130.17 222.835L125.109 219.11Z" fill="#F68D88"/>
<path d="M139.162 220.128L130.064 220.846L130.17 222.835L139.003 222.223L139.162 220.128Z" fill="#ECBDBB"/>
<path d="M207.949 32.0104H114.346C112.152 32.0104 110.374 33.7888 110.374 35.9826V97.3017C110.374 99.4955 112.152 101.274 114.346 101.274H207.949C210.143 101.274 211.921 99.4955 211.921 97.3017V35.9826C211.921 33.7888 210.143 32.0104 207.949 32.0104Z" fill="#9AB3DA"/>
<path d="M167.456 32.0104H155.787L145.624 50.6003L129.176 59.2862L128.664 61.7402L125.192 66.8481L124.374 78.494L110.374 83.9786V90.3224L140.616 79.5121L167.456 32.0104Z" fill="#F9D4D4"/>
<path d="M128.664 61.7402L132.083 64.9591L129.176 59.2862L128.664 61.7402Z" fill="#F68D88"/>
<path d="M124.374 78.494L126.875 82.731L132.083 64.9591L125.192 66.8481L124.374 78.494Z" fill="#ECBDBB"/>
<path d="M129.176 59.2862C129.176 59.2862 132.036 64.8002 132.089 64.9591C132.142 65.118 146.648 52.7012 146.648 52.7012L145.624 50.6062L129.176 59.2862Z" fill="#ECBDBB"/>
<path d="M126.875 82.7311L124.374 78.494L110.374 83.9786V84.3494L123.656 80.383L126.875 82.7311Z" fill="#F9D4D4"/>
<path d="M114.511 101.303H207.784C208.877 101.303 209.924 100.869 210.697 100.097C211.47 99.3243 211.904 98.2765 211.904 97.184V36.1474C211.904 35.0549 211.47 34.0071 210.697 33.2346C209.924 32.462 208.877 32.028 207.784 32.028H160.035L146.642 52.6953L132.083 64.9591L126.875 82.7369L110.398 90.1164V97.1428C110.392 97.6867 110.494 98.2263 110.699 98.7305C110.903 99.2346 111.205 99.6934 111.587 100.08C111.97 100.467 112.425 100.774 112.927 100.984C113.429 101.194 113.967 101.303 114.511 101.303Z" fill="#F68D88"/>
<path d="M170.857 30.1685L216.064 83.0371L212.233 91.7759L159.824 31.2454L170.857 30.1685Z" fill="#9AB3DA"/>
<path d="M172.676 32.2988L169.416 42.3264L174.194 47.8404L177.437 37.8657L172.676 32.2988Z" fill="#6B81BE"/>
<path d="M183.704 45.1922L180.479 55.1022L185.257 60.622L188.465 50.7592L183.704 45.1922Z" fill="#6B81BE"/>
<path d="M194.732 58.0916L191.548 67.8838L196.327 73.4037L199.493 63.6586L194.732 58.0916Z" fill="#6B81BE"/>
<path d="M205.76 70.991L202.612 80.6655L207.39 86.1854L210.521 76.558L205.76 70.991Z" fill="#6B81BE"/>
<path d="M108.72 84.4612C108.72 84.4612 166.22 82.2132 213.669 88.5805L212.127 99.5909C212.127 99.5909 146.218 92.7999 108.862 94.6241L108.72 84.4612Z" fill="#9AB3DA"/>
<path d="M117.795 84.2376L123.15 94.3475C125.472 94.3475 127.838 94.3672 130.247 94.4064L124.809 84.1375C122.191 84.1493 119.843 84.1846 117.795 84.2376Z" fill="#6B81BE"/>
<path d="M108.72 84.4612L108.862 94.6418C110.545 94.5594 112.281 94.4947 114.07 94.4476L108.773 84.4435H108.72V84.4612Z" fill="#6B81BE"/>
<path d="M134.095 84.0787L139.674 94.6124C142.067 94.6869 144.47 94.7752 146.883 94.8772L141.181 84.1081C138.733 84.0904 136.379 84.0846 134.095 84.0787Z" fill="#6B81BE"/>
<path d="M150.567 84.2376L156.452 95.3186C158.9 95.448 161.336 95.5834 163.737 95.7305L157.746 84.4141C155.294 84.3514 152.901 84.2925 150.567 84.2376Z" fill="#6B81BE"/>
<path d="M167.215 84.7672L173.358 96.366C175.877 96.5367 178.331 96.7132 180.709 96.8898L174.471 85.1203C172.027 84.983 169.608 84.8653 167.215 84.7672Z" fill="#6B81BE"/>
<path d="M184.169 85.6911L190.518 97.6607C193.178 97.8784 195.656 98.0903 197.921 98.2845L191.548 86.2443C189.077 86.0442 186.617 85.8598 184.169 85.6911Z" fill="#6B81BE"/>
<path d="M212.733 95.2009L208.914 87.992C206.427 87.69 203.922 87.4094 201.399 87.1505L207.767 99.1789C210.544 99.4438 212.11 99.6085 212.11 99.6085L212.733 95.2009Z" fill="#6B81BE"/>
<path d="M165.755 77.37H139.174C138.901 77.3678 138.633 77.2924 138.398 77.1517C138.164 77.0109 137.972 76.8099 137.841 76.5696C137.711 76.3293 137.647 76.0585 137.657 75.7853C137.667 75.5121 137.75 75.2465 137.897 75.0161L151.191 55.0963C151.331 54.8875 151.521 54.7165 151.743 54.5982C151.965 54.48 152.213 54.4182 152.465 54.4182C152.716 54.4182 152.964 54.48 153.186 54.5982C153.408 54.7165 153.598 54.8875 153.739 55.0963L167.032 75.0161C167.18 75.2465 167.262 75.5121 167.272 75.7853C167.282 76.0585 167.218 76.3293 167.088 76.5696C166.958 76.8099 166.765 77.0109 166.531 77.1517C166.297 77.2924 166.029 77.3678 165.755 77.37ZM142.034 74.3041H162.889L152.462 58.6742L142.034 74.3041Z" fill="white"/>
<path d="M152.468 69.6022C152.186 69.6026 151.914 69.4947 151.71 69.3009C151.505 69.1071 151.382 68.8421 151.367 68.5606L151.12 63.9175C151.11 63.7347 151.138 63.5518 151.202 63.3801C151.265 63.2083 151.363 63.0513 151.489 62.9186C151.615 62.7859 151.767 62.6803 151.935 62.6082C152.103 62.5361 152.285 62.499 152.468 62.4993C152.651 62.499 152.832 62.5361 153 62.6082C153.168 62.6803 153.32 62.7859 153.446 62.9186C153.572 63.0513 153.67 63.2083 153.734 63.3801C153.797 63.5518 153.825 63.7347 153.815 63.9175L153.568 68.5606C153.553 68.8421 153.43 69.1071 153.226 69.3009C153.021 69.4947 152.75 69.6026 152.468 69.6022Z" fill="white"/>
<path d="M152.468 73.133C153.118 73.133 153.645 72.6061 153.645 71.9561C153.645 71.3061 153.118 70.7791 152.468 70.7791C151.818 70.7791 151.291 71.3061 151.291 71.9561C151.291 72.6061 151.818 73.133 152.468 73.133Z" fill="white"/>
<path d="M117.194 38.9603C118.056 38.9603 118.754 38.2621 118.754 37.4008C118.754 36.5396 118.056 35.8414 117.194 35.8414C116.333 35.8414 115.635 36.5396 115.635 37.4008C115.635 38.2621 116.333 38.9603 117.194 38.9603Z" fill="#ECBDBB"/>
<path d="M123.579 38.9603C124.441 38.9603 125.139 38.2621 125.139 37.4008C125.139 36.5396 124.441 35.8414 123.579 35.8414C122.718 35.8414 122.02 36.5396 122.02 37.4008C122.02 38.2621 122.718 38.9603 123.579 38.9603Z" fill="white"/>
<path d="M129.964 38.9603C130.826 38.9603 131.524 38.2621 131.524 37.4008C131.524 36.5396 130.826 35.8414 129.964 35.8414C129.103 35.8414 128.405 36.5396 128.405 37.4008C128.405 38.2621 129.103 38.9603 129.964 38.9603Z" fill="#6B81BE"/>
<path d="M78.6552 23.2186C78.6092 23.2189 78.5639 23.2067 78.5243 23.1832C78.4847 23.1597 78.4522 23.1259 78.4304 23.0853C78.4086 23.0447 78.3983 22.999 78.4006 22.953C78.4029 22.907 78.4177 22.8625 78.4434 22.8243C78.7906 22.2947 81.6211 17.9988 82.4803 16.9396C81.9587 16.5835 81.5011 16.1418 81.1268 15.6331C80.9385 15.2212 80.5383 13.6382 80.962 12.9732C81.019 12.8793 81.0994 12.8017 81.1953 12.748C81.2912 12.6944 81.3994 12.6666 81.5093 12.6672C82.445 12.6672 84.893 14.1737 84.9166 14.1914C84.9401 14.209 85.2108 14.3915 84.9695 15.4801C84.9566 15.5388 84.9232 15.5909 84.8754 15.6273C84.8754 15.6273 83.8338 16.4099 83.2512 16.8866C83.6993 17.2195 84.1805 17.5054 84.6871 17.7399C85.3003 17.1856 85.8419 16.5569 86.2995 15.8685L85.8817 14.2561C85.665 14.1614 85.4564 14.0492 85.2579 13.9207C84.4368 13.2767 83.6889 12.5446 83.0276 11.7374C82.8746 11.7727 82.7216 11.8002 82.5686 11.8198L81.3916 11.9846C79.2613 12.3024 77.2723 12.6025 76.3484 11.3961C76.1661 11.2142 76.0429 10.9816 75.9946 10.7287C75.9463 10.4758 75.9753 10.2142 76.0777 9.9779C76.4131 9.3188 77.4841 8.95984 79.0201 9.00103H79.2143C79.8439 9.00103 80.503 9.03045 81.1503 9.00103C80.7973 8.27721 80.656 7.64165 80.8914 7.23561C80.9443 7.14587 81.0149 7.0678 81.0989 7.0061C81.1828 6.9444 81.2784 6.90036 81.3798 6.87664C80.3206 5.99392 79.5379 5.11121 79.3849 4.39916C79.1201 3.22221 79.2378 1.17431 80.3265 0.344565C80.7619 0.00913413 81.5446 -0.243914 82.7628 0.391639C83.6764 0.901735 84.4364 1.64755 84.9637 2.55135C85.4879 2.42969 86.0354 2.45411 86.5467 2.62196C86.8299 2.70709 87.0979 2.83617 87.3411 3.00447C88.365 2.22768 90.1364 1.28024 91.8194 1.49209C93.373 1.6804 95.0266 3.33402 95.515 5.17594C95.7298 5.80732 95.7365 6.4909 95.5342 7.12638C95.3319 7.76185 94.9312 8.31575 94.391 8.70679C93.6988 9.19428 92.8827 9.47584 92.0371 9.51889C92.0371 9.68954 92.0371 9.86021 92.0018 10.0367C93.5319 9.44827 95.668 9.37177 96.433 10.1721C96.9156 10.6782 96.6978 11.7551 95.8446 13.0615C95.1801 14.0803 94.3296 14.9647 93.3377 15.6685C94.2557 16.7395 95.003 17.8164 94.8559 18.8168C94.5087 21.1707 92.4432 21.4767 90.2599 21.4355C88.0767 21.3943 86.8291 17.634 86.4819 16.5041C86.1112 16.9984 85.7699 17.4045 85.5286 17.681C85.0284 18.2224 84.8283 18.3107 84.6459 18.2695C84.0105 18.0087 83.416 17.6579 82.8805 17.2279C82.292 17.9635 80.2264 21.0412 78.8612 23.1127C78.8377 23.1454 78.8068 23.1721 78.771 23.1906C78.7352 23.209 78.6955 23.2186 78.6552 23.2186ZM86.8468 15.9745V16.051C87.1999 17.3927 88.5063 20.8823 90.2364 20.9176C92.4903 20.9706 94.0497 20.6175 94.3204 18.7344C94.4381 17.9164 93.7319 16.9337 92.8669 15.9333C92.4273 16.2296 91.9279 16.4254 91.4041 16.5068C90.8803 16.5881 90.345 16.5531 89.8362 16.404C89.5358 16.2954 89.2641 16.1197 89.0418 15.8902C88.8195 15.6608 88.6524 15.3837 88.5534 15.08C88.2473 15.0152 87.9296 14.9387 87.6 14.8505C87.3646 15.2506 87.1057 15.6331 86.8468 15.9745ZM81.5152 13.1439C81.49 13.1423 81.4648 13.1481 81.4428 13.1607C81.4209 13.1732 81.4031 13.192 81.3916 13.2145C81.1445 13.597 81.3916 14.9093 81.5917 15.3919C81.9422 15.8423 82.3588 16.2372 82.8275 16.5629C83.3159 16.1569 84.2222 15.4743 84.487 15.2683C84.5477 15.0374 84.5832 14.8006 84.5929 14.5621C84.1398 14.2796 82.1625 13.1557 81.5152 13.1557V13.1439ZM89.1654 15.1977C89.3468 15.5369 89.6494 15.7953 90.0128 15.9215C90.4359 16.0386 90.8789 16.065 91.3129 15.9991C91.747 15.9332 92.1622 15.7764 92.5315 15.539L92.1842 15.1506C91.8076 14.7328 91.4369 14.3208 91.1191 13.9207C90.8543 14.7151 90.5306 15.3448 90.2364 15.3448C89.8826 15.3236 89.5307 15.2784 89.183 15.2094L89.1654 15.1977ZM86.4466 14.4856L86.6702 15.333L87.1057 14.6975C86.8939 14.6504 86.6702 14.5798 86.4643 14.5033L86.4466 14.4856ZM91.3015 13.3087C91.6546 13.7853 92.1136 14.2914 92.5609 14.7916L92.9728 15.2506C93.9364 14.5874 94.7585 13.7393 95.3914 12.7555C96.1682 11.5785 96.2683 10.737 96.027 10.4899C95.4385 9.87197 93.3671 9.9014 91.9077 10.5781C91.8076 11.2784 91.6605 11.9493 91.5487 12.3965C91.484 12.732 91.4016 13.0321 91.3133 13.3381L91.3015 13.3087ZM88.9476 14.621C89.3499 14.7077 89.7565 14.7726 90.1658 14.8152C90.4255 14.3735 90.6235 13.8983 90.7543 13.4028C90.45 13.0001 90.2481 12.5296 90.1658 12.0317C90.0893 11.349 90.5483 10.7194 91.4604 10.2663C91.4898 10.0132 91.5134 9.76605 91.5193 9.53066C91.0181 9.52786 90.5181 9.48258 90.0245 9.39531C89.7632 9.90058 89.5428 10.426 89.3655 10.9665C89.3512 11.4826 89.2225 11.9891 88.9888 12.4495C88.8711 13.0502 88.8453 13.6653 88.9123 14.2738C88.9229 14.4002 88.9406 14.5259 88.9653 14.6504L88.9476 14.621ZM87.8943 14.3797L88.4062 14.5033C88.4062 14.4444 88.4062 14.3797 88.4062 14.3208C88.3755 14.0966 88.3597 13.8705 88.3592 13.6441C88.212 13.9207 88.0649 14.1678 87.9119 14.4091L87.8943 14.3797ZM86.4231 13.9207C86.7232 14.0384 87.0527 14.1443 87.3882 14.2385C87.7782 13.6394 88.13 13.0164 88.4415 12.373C88.529 11.8684 88.6529 11.3708 88.8123 10.8841C88.7251 10.6819 88.5921 10.5026 88.4239 10.3604C88.2659 10.3846 88.1052 10.3846 87.9472 10.3604L87.6648 10.3074C87.4436 11.5785 87.0309 12.8087 86.4407 13.956L86.4231 13.9207ZM83.5513 11.5668C84.135 12.2759 84.7963 12.9174 85.5227 13.4793C85.6621 13.5698 85.8076 13.6504 85.9582 13.7206C86.5503 12.6163 86.9616 11.4242 87.1763 10.1897C86.9292 10.1132 86.6702 10.025 86.3995 9.91905C85.568 10.6485 84.6082 11.2172 83.569 11.5962L83.5513 11.5668ZM91.3427 10.8841C91.1375 10.9857 90.9639 11.1413 90.8405 11.3341C90.7171 11.527 90.6486 11.7498 90.6424 11.9787C90.6853 12.2544 90.7833 12.5186 90.9308 12.7555C91.1015 12.1964 91.2486 11.5491 91.3545 10.9136L91.3427 10.8841ZM78.82 9.50123C77.643 9.50123 76.7603 9.77193 76.5367 10.2074C76.4854 10.3605 76.4792 10.5251 76.5188 10.6816C76.5585 10.8381 76.6423 10.9799 76.7603 11.0901C77.4841 12.0434 79.3496 11.761 81.3269 11.4667L82.5038 11.2961H82.6568C82.198 10.7392 81.781 10.1491 81.4093 9.53066C80.6678 9.56597 79.9145 9.53066 79.1966 9.53066H78.8141L78.82 9.50123ZM81.9801 9.47181C82.3573 10.0575 82.77 10.6196 83.2159 11.1548C84.191 10.8425 85.0978 10.3472 85.8876 9.69543C85.3815 9.47181 84.8519 9.20111 84.3281 8.90099C83.584 9.23554 82.7876 9.43862 81.9742 9.50123L81.9801 9.47181ZM88.9476 10.2074L89.0477 10.3192L89.1654 10.0309C89.0994 10.0975 89.0264 10.1566 88.9476 10.2074ZM87.8707 9.31292C88.109 9.47572 88.3388 9.65053 88.5592 9.83666C88.6851 9.77202 88.7958 9.68143 88.884 9.57086C88.9723 9.4603 89.0361 9.33227 89.0712 9.19523C88.6887 9.09519 88.3062 8.97749 87.9355 8.84803C87.9178 9.00691 87.8943 9.15992 87.8707 9.31881V9.31292ZM86.835 9.56597L87.2823 9.71308L87.3117 9.53066L87.041 9.36L86.835 9.56597ZM84.8283 8.64206C85.3081 8.90637 85.8011 9.146 86.3054 9.36L86.5937 9.09518C86.1583 8.84214 85.6875 8.59498 85.2049 8.37136C85.0848 8.47068 84.959 8.56303 84.8283 8.64795V8.64206ZM90.2776 8.91276C90.6844 8.97709 91.0956 9.01053 91.5075 9.0128C91.5075 8.91864 91.5075 8.83037 91.5075 8.74799C91.5128 8.61791 91.4903 8.48819 91.4416 8.36746C91.3929 8.24672 91.3191 8.13772 91.225 8.0477C91.1775 8.04095 91.1292 8.04485 91.0834 8.05909C91.0376 8.07334 90.9955 8.09759 90.9602 8.13009C90.686 8.34625 90.4545 8.61168 90.2776 8.91276ZM91.1603 7.52984C91.2589 7.52935 91.356 7.55363 91.4428 7.60046C91.8253 7.80054 91.9842 8.33605 92.0312 8.99514C92.7647 8.96588 93.4757 8.73365 94.085 8.32428C94.5334 7.98867 94.865 7.52062 95.0329 6.98629C95.2008 6.45196 95.1965 5.87837 95.0207 5.3466C94.5911 3.71653 93.0964 2.19826 91.7547 2.03349C90.3011 1.85694 88.7534 2.62196 87.753 3.37521C88.4401 4.099 88.967 4.95934 89.2995 5.90023C89.6321 6.84113 89.7628 7.8415 89.6832 8.83626H89.7597C89.9819 8.41541 90.2837 8.04168 90.6483 7.73581C90.7955 7.62267 90.9747 7.55883 91.1603 7.55338V7.52984ZM81.8447 7.32976C81.752 7.31283 81.6566 7.31843 81.5664 7.34608C81.4763 7.37373 81.3942 7.42263 81.3269 7.48865C81.1621 7.78289 81.3269 8.33605 81.6917 8.98926C82.4039 8.95394 83.1073 8.81721 83.7808 8.58321C83.1452 8.20023 82.5304 7.78378 81.9389 7.33565H81.8389L81.8447 7.32976ZM85.5698 7.98297C86.1963 8.2817 86.8054 8.61571 87.3941 8.98338C87.3941 8.87157 87.4235 8.75387 87.4411 8.64795C86.8341 8.41039 86.2442 8.13118 85.6757 7.81231C85.6441 7.87901 85.6088 7.94385 85.5698 8.00651V7.98297ZM87.9943 8.32428C88.3768 8.46552 88.777 8.5891 89.1713 8.69502C89.2374 7.7743 89.108 6.85001 88.7916 5.98285C88.4751 5.11569 87.9788 4.32529 87.3352 3.66356C87.0542 3.86111 86.8226 4.12091 86.6585 4.4227C86.6585 4.81697 87.5353 5.90565 87.9119 6.27639C88.0826 6.44705 88.1238 7.25914 87.9943 8.32428ZM83.057 7.5475C83.463 7.82408 83.8926 8.09478 84.3222 8.34782C84.4459 8.28204 84.5657 8.20934 84.6812 8.13009C84.1532 7.90359 83.6106 7.71289 83.057 7.55926V7.5475ZM85.8935 7.35918C86.4115 7.65283 86.9481 7.91231 87.5 8.13597C87.5712 7.62907 87.5831 7.11559 87.5353 6.60594C87.3352 6.39409 86.1641 5.11121 86.1641 4.41681C86.2787 3.98254 86.5488 3.60553 86.9233 3.35755C86.7591 3.25924 86.5831 3.18212 86.3995 3.12805C86.0202 3.00385 85.6168 2.97158 85.2226 3.0339C85.641 3.83052 85.914 4.69539 86.0288 5.58787C86.1125 6.18505 86.0664 6.79326 85.8935 7.37095V7.35918ZM82.0978 6.8531H82.2037C83.2023 7.02609 84.1725 7.33496 85.0872 7.77112C85.145 7.70354 85.1962 7.63063 85.2402 7.55338C84.9477 7.37796 84.6684 7.18128 84.4046 6.96491C83.9443 6.53594 83.6336 5.9707 83.5181 5.35216C83.4027 4.73361 83.4886 4.09435 83.7632 3.52821C83.9288 3.21596 84.1772 2.95535 84.4811 2.77496C84.0044 1.9781 83.3266 1.32057 82.5156 0.868307C81.727 0.45049 81.0915 0.421065 80.6207 0.780035C79.8086 1.40382 79.5968 3.10451 79.8675 4.31088C80.0205 4.98175 80.9091 5.92919 82.1037 6.85898L82.0978 6.8531ZM84.74 3.20455C84.5153 3.33849 84.332 3.53197 84.2104 3.7636C83.9878 4.2278 83.9192 4.75091 84.0144 5.25682C84.1097 5.76273 84.3639 6.22504 84.74 6.57651C84.9612 6.76329 85.1952 6.93437 85.4403 7.08849C85.557 6.6151 85.583 6.12389 85.5168 5.64084C85.4069 4.79228 85.1437 3.97076 84.74 3.21632V3.20455Z" fill="#F68D88"/>
<path d="M11.8044 96.8015C11.4461 96.7795 11.0975 96.6757 10.7854 96.4983C10.4733 96.3208 10.2059 96.0743 10.0037 95.7776C9.35407 94.9592 8.93548 93.9818 8.79144 92.947C8.26108 92.8606 7.76449 92.6306 7.35557 92.282C7.12638 92.0965 6.9278 91.876 6.76709 91.6288C5.52541 91.9583 3.53048 92.1584 2.05929 91.3287C0.694029 90.5637 -0.206337 88.3863 0.0408221 86.515C0.0845274 85.8565 0.335948 85.2289 0.758922 84.7224C1.1819 84.2159 1.75462 83.8566 2.39472 83.6962C3.22602 83.5088 4.09348 83.5619 4.89574 83.8492C4.96636 83.6962 5.04286 83.5373 5.12525 83.3843C3.48928 83.3431 1.48259 82.6075 1.07654 81.5776C0.823495 80.9303 1.42962 80.0123 2.70661 79.1237C3.70931 78.4331 4.83336 77.938 6.01973 77.6643C5.57837 76.3285 5.2959 75.0456 5.80788 74.1746C7.03779 72.1032 9.05626 72.6269 11.0571 73.5038C13.0579 74.3806 12.7872 78.3234 12.6754 79.5003C13.205 79.1884 13.6758 78.9119 13.9994 78.7824C14.6703 78.4705 14.888 78.4646 15.041 78.5705C15.5241 79.0511 15.9363 79.598 16.2651 80.1947C17.0889 79.7416 20.1726 77.6761 22.2204 76.2814C22.2477 76.2594 22.2792 76.2434 22.313 76.2342C22.3468 76.2251 22.3821 76.2231 22.4167 76.2283C22.4514 76.2335 22.4845 76.2458 22.5141 76.2645C22.5437 76.2832 22.5691 76.3078 22.5887 76.3368C22.6083 76.3658 22.6217 76.3985 22.628 76.433C22.6343 76.4674 22.6334 76.5028 22.6253 76.5368C22.6173 76.5709 22.6022 76.6029 22.5811 76.6308C22.5601 76.6588 22.5334 76.6821 22.5029 76.6992C21.9792 77.0582 17.7245 79.9535 16.5181 80.6302C16.8641 81.1565 17.1188 81.7375 17.2714 82.3485C17.2714 82.8017 17.0595 84.42 16.4122 84.8672C16.3232 84.932 16.219 84.9725 16.1096 84.9849C16.0003 84.9973 15.8896 84.9811 15.7884 84.9378C14.9116 84.5789 13.2285 82.2544 13.2168 82.2309C13.205 82.2073 13.0167 81.9366 13.6522 81.0186C13.6861 80.9697 13.7361 80.9343 13.7935 80.9186C13.7935 80.9186 15.0587 80.589 15.7708 80.3713C15.4909 79.8855 15.1615 79.43 14.788 79.0119C14.0109 79.2919 13.2716 79.6675 12.5871 80.13L12.3635 81.7836C12.5272 81.9536 12.6768 82.1366 12.8107 82.3309C13.3241 83.2384 13.7365 84.1995 14.0406 85.1968C14.1936 85.2242 14.3447 85.2576 14.4938 85.2968L15.6354 85.5852C17.7245 86.0971 19.6959 86.5856 20.0843 88.0273C20.1832 88.2645 20.2086 88.526 20.1572 88.7778C20.1058 89.0297 19.9799 89.2602 19.7959 89.4397C19.2075 89.9222 18.1129 89.8457 16.7123 89.2337L16.5299 89.1572C15.9414 88.9042 15.3529 88.6394 14.7645 88.4157C14.8174 89.2161 14.7056 89.8634 14.329 90.1812C14.2461 90.2445 14.1512 90.2902 14.05 90.3155C13.9488 90.3408 13.8435 90.3452 13.7405 90.3283C14.3878 91.5523 14.7703 92.6822 14.6468 93.3766C14.4408 94.5535 13.5581 96.4131 12.234 96.7662C12.0929 96.7963 11.9486 96.8082 11.8044 96.8015ZM9.26811 92.9411C9.40616 93.8602 9.78366 94.7268 10.3627 95.4539C10.9511 96.1424 11.5396 96.4131 12.081 96.2601C13.0697 95.9953 13.9112 94.4947 14.123 93.2707C14.2407 92.5998 13.7758 91.3816 13.0226 90.0693L12.9284 90.0164C12.0702 89.4761 11.2901 88.8207 10.6098 88.0685C10.5312 88.1087 10.4563 88.156 10.3862 88.2098C10.5882 88.4902 10.7692 88.7853 10.9276 89.0925C11.1896 89.6637 11.2618 90.3038 11.1337 90.9191C11.0056 91.5343 10.6838 92.0924 10.2156 92.5115C9.94517 92.739 9.61737 92.8876 9.26811 92.9411ZM10.0214 88.5805C9.73445 88.975 9.52479 89.4203 9.40346 89.8928C9.18035 90.7226 9.11056 91.5861 9.19749 92.4409C9.45565 92.4012 9.69791 92.2913 9.89778 92.1231C10.2812 91.7796 10.545 91.3227 10.6509 90.8189C10.7567 90.3152 10.699 89.7907 10.4863 89.322C10.3586 89.0631 10.2131 88.8133 10.0508 88.5746L10.0214 88.5805ZM7.23787 91.4699C7.3529 91.6257 7.48738 91.7661 7.63803 91.8877C7.94379 92.1475 8.30682 92.331 8.69729 92.4232C8.61198 91.5265 8.68771 90.6217 8.92091 89.7516C9.06816 89.1691 9.33911 88.6252 9.71535 88.1568C9.35221 87.6885 8.95907 87.2442 8.5384 86.8268C8.28887 87.2694 8.09139 87.7394 7.94992 88.2274C8.05585 88.4981 8.65021 90.1341 8.3854 90.7755C8.11069 91.1354 7.71233 91.3807 7.26729 91.464L7.23787 91.4699ZM3.31274 84.0787C3.03699 84.078 2.76222 84.1116 2.49476 84.1787C1.95508 84.3241 1.47459 84.6351 1.12094 85.068C0.767292 85.5008 0.558294 86.0336 0.523371 86.5915C0.299751 88.2627 1.11185 90.2341 2.2888 90.8991C3.56579 91.617 5.2959 91.4876 6.50228 91.1816C6.14254 90.2507 5.98282 89.2545 6.03352 88.2579C6.08421 87.2612 6.34418 86.2864 6.79651 85.3969L6.73178 85.3557C6.36148 85.6497 5.93787 85.8695 5.48422 86.003C5.35079 86.0494 5.2067 86.0557 5.06972 86.0212C4.93273 85.9867 4.80884 85.9128 4.71331 85.8088C4.43673 85.4792 4.49558 84.9261 4.71331 84.3023C4.27056 84.1573 3.80803 84.0819 3.34217 84.0787H3.31274ZM7.17902 85.6734C6.76767 86.4993 6.53561 87.4029 6.49809 88.3248C6.46056 89.2467 6.61842 90.1661 6.96129 91.0227C7.29517 90.9475 7.60727 90.7965 7.87342 90.5813C8.02054 90.2165 7.62038 88.8747 7.4203 88.3863C7.33203 88.1803 7.62038 87.4212 8.13235 86.4679C7.86165 86.1854 7.54388 85.9206 7.20845 85.6675L7.17902 85.6734ZM13.3874 89.6692C13.478 89.7325 13.5822 89.7736 13.6917 89.7889C13.8011 89.8042 13.9126 89.7935 14.0171 89.7575C14.2819 89.5456 14.3349 88.9748 14.2525 88.2333C13.5796 87.9953 12.8761 87.8546 12.1634 87.8155C12.6038 88.4114 13.0124 89.0301 13.3874 89.6692ZM14.7056 87.8567C15.4059 88.1038 16.0944 88.4098 16.7535 88.6982L16.9301 88.7747C18.107 89.2808 19.0898 89.3985 19.4781 89.063C19.5837 88.9412 19.6521 88.7915 19.675 88.6319C19.698 88.4722 19.6746 88.3094 19.6076 88.1627C19.3016 86.9857 17.4656 86.5561 15.5295 86.0795C15.1411 85.9853 14.7527 85.8912 14.3525 85.7852L14.1995 85.7499C14.4221 86.4386 14.5932 87.1427 14.7115 87.8567H14.7056ZM11.1748 87.9038C11.5734 88.3244 12.0001 88.7176 12.4518 89.0807C12.1811 88.6688 11.8633 88.2568 11.5867 87.8567C11.4427 87.8641 11.2993 87.8799 11.1571 87.9038H11.1748ZM8.82087 86.3678C9.28888 86.8179 9.72539 87.2996 10.1273 87.8096L10.3038 87.6919C9.8361 87.1777 9.39796 86.6374 8.99153 86.0736L8.82087 86.3678ZM12.0398 87.3094C12.7722 87.3252 13.4981 87.4502 14.1936 87.6801C14.0664 86.9957 13.8974 86.3196 13.6876 85.6558C12.6652 85.5731 11.6364 85.6869 10.6569 85.9912C11.0394 86.3914 11.4219 86.8386 11.7986 87.3212H12.0339L12.0398 87.3094ZM9.76831 86.2913C10.0743 86.6915 10.4215 87.0975 10.7805 87.4683C10.9275 87.4246 11.0768 87.3892 11.2277 87.3624C10.884 86.9359 10.5187 86.5274 10.1332 86.1383L9.76831 86.2913ZM7.50268 85.2556C7.82046 85.4969 8.12647 85.7499 8.42071 86.0089L8.65609 85.6087C8.49637 85.3672 8.34906 85.1178 8.21474 84.8613C8.07505 84.8735 7.93947 84.9149 7.8168 84.9828C7.69413 85.0507 7.58711 85.1437 7.50268 85.2556ZM9.26811 85.6087L9.45054 85.8676L9.72124 85.7617L9.36227 85.4557L9.26811 85.6087ZM9.63885 85.0202C9.83893 85.185 10.0449 85.3674 10.2273 85.5675C11.2787 85.2164 12.3863 85.0648 13.4934 85.1203C13.2232 84.2427 12.8561 83.3979 12.3988 82.6016C12.3041 82.465 12.1999 82.3352 12.0869 82.2132C11.1193 83.0147 10.2868 83.9664 9.62119 85.032L9.63885 85.0202ZM5.19586 84.4671C5.16644 84.5553 5.13701 84.6377 5.11348 84.7201C5.06057 84.8386 5.03323 84.9669 5.03323 85.0967C5.03323 85.2265 5.06057 85.3548 5.11348 85.4734C5.15671 85.4938 5.20394 85.5044 5.25177 85.5044C5.29959 85.5044 5.34682 85.4938 5.39006 85.4734C5.72046 85.3738 6.02967 85.2142 6.30219 85.0026C5.94334 84.7999 5.56955 84.6248 5.18409 84.4788L5.19586 84.4671ZM8.55017 84.3729C8.70594 84.4131 8.85475 84.4765 8.99153 84.5612L9.2328 84.7142C9.92321 83.6514 10.7681 82.6974 11.7397 81.8837C11.5043 81.66 11.2395 81.4364 10.9688 81.2187C10.3751 81.616 9.80707 82.0503 9.26811 82.5192C8.99626 82.9525 8.69338 83.3655 8.36186 83.755C8.36925 83.9753 8.42767 84.1908 8.53252 84.3847L8.55017 84.3729ZM5.39006 84.0022C5.8543 84.1952 6.30121 84.4275 6.7259 84.6966C7.15845 84.3367 7.56183 83.9431 7.93227 83.5196C8.14151 83.0472 8.45306 82.6271 8.84441 82.2897C9.18213 81.7786 9.44009 81.219 9.60943 80.6302C9.6419 80.5082 9.66744 80.3844 9.68593 80.2595C9.34662 80.0268 8.99499 79.8127 8.63256 79.618C8.22332 79.9294 7.85896 80.2958 7.54976 80.7067C7.68546 81.1961 7.6996 81.7112 7.59096 82.2073C7.39676 82.8664 6.73767 83.2783 5.71372 83.3843C5.58426 83.5785 5.47245 83.8021 5.37241 84.0139L5.39006 84.0022ZM13.6817 82.0013C13.9936 82.4368 15.3824 84.2199 15.9885 84.4671C16.0095 84.4807 16.034 84.488 16.0591 84.488C16.0842 84.488 16.1087 84.4807 16.1297 84.4671C16.5064 84.2022 16.7888 82.9076 16.7712 82.378C16.6109 81.8308 16.3689 81.311 16.0532 80.8362C15.4648 81.0245 14.3525 81.3128 14.023 81.4246C13.89 81.6048 13.7756 81.7981 13.6817 82.0013ZM7.94992 84.2376L7.73219 84.4612C7.81722 84.4242 7.90601 84.3966 7.997 84.3788L7.94992 84.2376ZM6.1845 78.1468C5.04222 78.3926 3.96008 78.8626 3.00085 79.5298C1.8239 80.3477 1.42374 81.0598 1.5532 81.3834C1.86509 82.1779 3.78941 82.9194 5.4136 82.8723C5.77257 82.2838 6.16096 81.6953 6.43166 81.3246C6.61409 81.0774 6.8024 80.8244 7.02014 80.5772C6.87302 79.9888 6.64351 79.3591 6.43166 78.7235L6.1845 78.1468ZM7.12017 81.2363C6.74944 81.7189 6.36693 82.2662 6.0315 82.8076C6.25962 82.7923 6.47929 82.7152 6.66694 82.5846C6.85458 82.454 7.00313 82.2747 7.09664 82.0661C7.16396 81.7905 7.17397 81.5041 7.12606 81.2246L7.12017 81.2363ZM10.1155 80.5772C10.1155 80.6361 10.1018 80.6969 10.0743 80.7597C10.0178 80.9779 9.94702 81.1921 9.86247 81.4011C10.0802 81.2304 10.3156 81.0598 10.5451 80.8891L10.1155 80.5772ZM11.3925 80.9068C11.5749 81.0539 11.7515 81.2069 11.9162 81.354L12.0339 80.4831L11.3925 80.9068ZM10.1861 80.0064C10.4451 80.183 10.7099 80.3772 10.9806 80.5949C11.3631 80.3301 11.7515 80.077 12.1222 79.8475V79.771C12.3046 78.394 12.4223 74.6748 10.8393 73.9804C8.77379 73.0801 7.20256 72.8035 6.23158 74.4453C5.80788 75.1574 6.09035 76.3343 6.50816 77.5878C7.02769 77.4812 7.56432 77.4902 8.07995 77.6143C8.59559 77.7384 9.07759 77.9744 9.49173 78.3057C9.73005 78.5163 9.91743 78.7783 10.0398 79.0719C10.1621 79.3655 10.2162 79.683 10.1979 80.0005L10.1861 80.0064ZM6.6847 78.0703L6.86125 78.5647C7.04956 79.0943 7.23787 79.618 7.37911 80.1065C7.92639 79.4709 8.45013 79.0119 8.7326 79.1237C9.05662 79.2823 9.36926 79.4632 9.66827 79.6651C9.63079 79.2817 9.45006 78.9266 9.16218 78.6706C8.81751 78.4006 8.41967 78.2065 7.99474 78.1011C7.56981 77.9956 7.12739 77.9811 6.69647 78.0586L6.6847 78.0703Z" fill="#F68D88"/>
<path d="M127.787 29.0445C127.722 29.0446 127.659 29.0195 127.612 28.9746C127.565 28.9297 127.537 28.8683 127.534 28.8032C127.44 26.2963 126.404 24.7545 125.245 23.9365C125.08 24.5872 124.679 25.1535 124.121 25.5254C123.767 25.764 123.355 25.8997 122.929 25.9174C122.503 25.9351 122.08 25.834 121.708 25.6255C121.475 25.4784 121.292 25.2659 121.18 25.0145C121.067 24.7632 121.032 24.4844 121.078 24.2131C121.22 23.2363 122.091 22.6478 123.303 22.7125C123.854 22.75 124.393 22.8981 124.886 23.148C124.913 22.7549 124.896 22.36 124.833 21.971C124.55 20.1173 123.485 18.9051 121.89 18.6403C121.399 18.5603 120.897 18.5783 120.413 18.6932C120.508 19.0061 120.573 19.3273 120.608 19.6524C120.808 21.4944 120.019 22.077 119.654 22.2417C119.406 22.3573 119.127 22.3916 118.857 22.3398C118.588 22.2881 118.342 22.1529 118.154 21.9534C117.908 21.6513 117.766 21.2781 117.749 20.8891C117.732 20.5001 117.841 20.116 118.059 19.7937C118.435 19.1341 119.034 18.631 119.748 18.3755C118.766 16.1275 116.218 15.4331 116.182 15.4037C116.121 15.3836 116.069 15.3408 116.038 15.284C116.007 15.2272 115.999 15.1607 116.016 15.0982C116.033 15.0357 116.072 14.9819 116.127 14.9479C116.182 14.9138 116.248 14.9022 116.312 14.9152C116.347 14.9152 119.166 15.7097 120.231 18.2224C120.798 18.0775 121.389 18.0514 121.967 18.1459C123.779 18.452 124.998 19.8172 125.309 21.9004C125.391 22.3985 125.403 22.9056 125.345 23.4069C126.692 24.2661 127.928 25.9668 128.034 28.7856C128.036 28.8517 128.011 28.9158 127.966 28.9642C127.921 29.0126 127.859 29.0414 127.793 29.0445H127.787ZM123.12 23.2009C122.414 23.2009 121.679 23.4775 121.561 24.272C121.529 24.4508 121.552 24.6353 121.628 24.8005C121.703 24.9657 121.828 25.1037 121.985 25.1959C122.273 25.3562 122.601 25.4324 122.931 25.4157C123.261 25.3991 123.579 25.2903 123.85 25.1017C124.095 24.9354 124.305 24.7225 124.467 24.4751C124.63 24.2277 124.742 23.9507 124.798 23.66C124.327 23.3995 123.804 23.2448 123.267 23.2068H123.126L123.12 23.2009ZM119.901 18.8403C119.303 19.0507 118.8 19.4682 118.483 20.0173C118.317 20.2465 118.227 20.5225 118.227 20.8059C118.227 21.0892 118.317 21.3652 118.483 21.5944C118.598 21.7166 118.748 21.7998 118.913 21.8325C119.078 21.8652 119.248 21.8457 119.401 21.7768C119.931 21.5297 120.178 20.7529 120.066 19.6995C120.039 19.4086 119.983 19.1209 119.901 18.8403Z" fill="white"/>
<path d="M197.045 28.4678C196.984 28.4693 196.924 28.4488 196.877 28.4099C196.83 28.3711 196.799 28.3166 196.789 28.2564C196.779 28.1962 196.791 28.1345 196.823 28.0825C196.854 28.0305 196.904 27.9918 196.962 27.9735C199.316 27.1672 200.493 25.7373 200.97 24.3896C200.3 24.4165 199.644 24.1943 199.128 23.7659C198.799 23.4951 198.551 23.1382 198.413 22.7351C198.275 22.3319 198.251 21.8983 198.345 21.4826C198.416 21.213 198.566 20.9707 198.776 20.7872C198.985 20.6036 199.245 20.4871 199.522 20.4527C200.493 20.3056 201.287 20.9765 201.593 22.1593C201.714 22.6988 201.726 23.257 201.629 23.8012C202.007 23.7151 202.374 23.5868 202.723 23.4187C204.418 22.6183 205.277 21.2531 205.077 19.6583C205.014 19.1649 204.854 18.6889 204.606 18.2577C204.335 18.4376 204.048 18.5913 203.747 18.7167C202.035 19.4347 201.252 18.8344 200.993 18.5402C200.813 18.3344 200.701 18.0772 200.675 17.8048C200.649 17.5324 200.709 17.2585 200.846 17.0219C201.067 16.7051 201.382 16.4669 201.747 16.342C202.113 16.2171 202.508 16.2121 202.876 16.3275C203.616 16.4998 204.27 16.9321 204.718 17.5457C206.601 15.9627 206.554 13.3145 206.554 13.2792C206.555 13.2455 206.563 13.2122 206.576 13.1814C206.59 13.1506 206.61 13.1229 206.635 13.0999C206.659 13.0768 206.688 13.059 206.72 13.0473C206.752 13.0357 206.785 13.0305 206.819 13.0321C206.885 13.0334 206.949 13.0595 206.997 13.1053C207.045 13.151 207.074 13.2131 207.078 13.2792C207.078 13.3145 207.131 16.2216 205.024 17.987C205.332 18.4877 205.532 19.0468 205.613 19.6289C205.836 21.4532 204.877 23.0126 202.971 23.9071C202.518 24.1278 202.036 24.2843 201.541 24.372C201.099 25.9138 199.822 27.5792 197.15 28.4913L197.045 28.4678ZM199.793 20.9471H199.604C199.424 20.9671 199.253 21.0422 199.116 21.1622C198.98 21.2821 198.883 21.4412 198.839 21.6179C198.767 21.9411 198.788 22.278 198.898 22.5901C199.008 22.9023 199.204 23.1772 199.463 23.3833C199.693 23.5703 199.957 23.7102 200.241 23.7951C200.525 23.8799 200.822 23.908 201.117 23.8777C201.234 23.3505 201.234 22.8042 201.117 22.277C201.078 21.9386 200.926 21.6232 200.686 21.3818C200.446 21.1405 200.131 20.9873 199.793 20.9471ZM202.353 16.7748C202.148 16.7601 201.943 16.7991 201.759 16.8878C201.574 16.9766 201.416 17.1121 201.299 17.2809C201.216 17.4258 201.179 17.5932 201.195 17.7598C201.211 17.9265 201.278 18.084 201.388 18.2107C201.776 18.6461 202.564 18.6638 203.565 18.2577C203.836 18.1453 204.096 18.0074 204.342 17.8458C203.969 17.3317 203.424 16.9684 202.806 16.8219C202.657 16.7915 202.505 16.7758 202.353 16.7748Z" fill="#9AB3DA"/>
<path d="M201.935 117.045H201.894C201.858 117.045 198.951 116.539 197.668 114.144C197.119 114.345 196.534 114.429 195.95 114.391C194.12 114.267 192.766 113.032 192.248 110.99C192.116 110.503 192.053 109.999 192.06 109.495C190.63 108.771 189.235 107.206 188.847 104.41C188.839 104.344 188.857 104.277 188.898 104.224C188.939 104.171 188.999 104.137 189.065 104.128C189.131 104.121 189.197 104.14 189.25 104.181C189.302 104.221 189.337 104.28 189.347 104.346C189.689 106.829 190.871 108.259 192.113 108.959C192.213 108.297 192.555 107.695 193.072 107.27C193.4 106.999 193.798 106.824 194.219 106.765C194.641 106.705 195.071 106.764 195.462 106.935C195.713 107.056 195.923 107.249 196.064 107.491C196.204 107.732 196.269 108.01 196.25 108.289C196.209 109.271 195.397 109.942 194.185 110.001C193.632 110.02 193.082 109.928 192.566 109.73C192.578 110.128 192.635 110.523 192.737 110.907C193.202 112.726 194.385 113.85 195.985 113.932C196.482 113.964 196.98 113.898 197.451 113.738C197.325 113.438 197.229 113.126 197.162 112.808C196.78 110.996 197.515 110.336 197.851 110.136C198.087 109.999 198.36 109.939 198.632 109.964C198.905 109.989 199.162 110.099 199.369 110.278C199.642 110.554 199.819 110.911 199.875 111.295C199.93 111.68 199.86 112.072 199.675 112.414C199.366 113.107 198.819 113.667 198.133 113.991C199.31 116.139 201.947 116.586 201.976 116.592C202.017 116.616 202.049 116.652 202.071 116.694C202.092 116.737 202.101 116.784 202.097 116.831C202.093 116.879 202.075 116.924 202.047 116.961C202.018 116.999 201.979 117.028 201.935 117.045ZM198.504 110.407C198.363 110.408 198.225 110.446 198.104 110.519C197.598 110.819 197.433 111.613 197.651 112.649C197.71 112.937 197.797 113.219 197.91 113.491C198.485 113.22 198.944 112.752 199.204 112.172C199.345 111.927 199.405 111.644 199.375 111.363C199.346 111.082 199.228 110.817 199.039 110.607C198.892 110.482 198.704 110.413 198.51 110.413L198.504 110.407ZM192.59 109.183C193.085 109.398 193.621 109.501 194.161 109.483C194.902 109.448 195.709 109.107 195.744 108.253C195.758 108.072 195.717 107.891 195.626 107.734C195.534 107.578 195.397 107.453 195.232 107.376C194.928 107.246 194.594 107.203 194.268 107.253C193.941 107.303 193.635 107.444 193.384 107.659C192.928 108.042 192.643 108.59 192.59 109.183Z" fill="white"/>
<path d="M96.3683 102.639L96.6743 97.4194L107.62 98.8494L96.3683 102.639Z" fill="white"/>
<path d="M99.9698 110.46L108.709 105.364L103.471 114.285L99.9698 110.46Z" fill="#F68D88"/>
<path d="M112.663 114.838C112.575 114.615 113.799 106.352 113.799 106.352L116.406 114.373L112.663 114.838Z" fill="white"/>
<path d="M143.04 26.261L136.455 19.3641L141.587 15.2271L143.04 26.261Z" fill="#F68D88"/>
<path d="M148.56 26.414C148.637 26.108 153.309 17.528 153.309 17.528L158.517 20.135L148.56 26.414Z" fill="#F68D88"/>
<path d="M146.336 15.7626L145.112 8.00061L149.302 8.40666L146.336 15.7626Z" fill="#F68D88"/>
<path d="M27.6227 132.846C27.6227 132.846 33.1131 138.46 55.1044 132.128C76.7603 125.896 79.5203 112.92 79.5203 112.92C79.5203 112.92 67.1623 109.648 49.0784 115.474C30.9946 121.3 27.6227 132.846 27.6227 132.846Z" fill="#404B7C"/>
<path d="M83.8632 201.238L82.4509 205.357L80.2382 211.813L75.0773 211.201L75.8953 205.852L76.6603 200.832L83.8632 201.238Z" fill="#ECBDBB"/>
<path d="M83.8632 201.238L82.4508 205.357C80.3168 205.948 78.0878 206.116 75.8893 205.852L76.6544 200.832L83.8632 201.238Z" fill="#404B7C"/>
<path d="M97.81 224.683C97.81 224.683 93.4259 224.654 88.0531 224.571C81.9683 224.483 74.5888 224.336 70.8402 224.124C70.8402 224.124 70.9109 222.782 71.1404 220.846C71.5464 217.398 72.435 212.019 74.2652 209.006C76.7994 209.911 79.5144 210.191 82.1801 209.824C82.1801 209.824 85.2991 214.373 87.9531 215.55C88.3628 215.728 88.7859 215.873 89.2183 215.985C91.4545 216.574 93.7025 216.291 96.027 217.286C97.5158 217.921 97.916 220.028 97.963 221.829C97.9937 222.783 97.9425 223.738 97.81 224.683Z" fill="#404B7C"/>
<path d="M77.0428 218.81C78.2421 218.81 79.2143 217.588 79.2143 216.079C79.2143 214.571 78.2421 213.349 77.0428 213.349C75.8435 213.349 74.8713 214.571 74.8713 216.079C74.8713 217.588 75.8435 218.81 77.0428 218.81Z" fill="#F68D88"/>
<path d="M97.81 224.683C97.81 224.683 93.4259 224.654 88.0531 224.571C88.0531 223.983 88.0531 222.882 88.1532 221.593C88.2826 219.699 88.571 217.433 89.2183 215.979C91.4545 216.568 93.7025 216.285 96.027 217.28C97.5158 217.916 97.916 220.022 97.963 221.823C97.994 222.779 97.9428 223.736 97.81 224.683Z" fill="#F68D88"/>
<path d="M97.81 224.683C97.81 224.683 93.4259 224.654 88.0531 224.571C81.9683 224.483 74.5888 224.336 70.8402 224.124C70.8402 224.124 70.9109 222.782 71.1404 220.846C73.3942 220.97 80.4147 221.34 88.1532 221.593C91.3957 221.699 94.7676 221.782 97.9689 221.823C97.9979 222.779 97.9448 223.736 97.81 224.683Z" fill="#F68D88"/>
<path d="M96.9509 222.058C94.338 222.023 91.4604 221.952 88.1237 221.847C81.9742 221.646 76.1718 221.364 72.3879 221.17C72.3547 221.168 72.3221 221.16 72.2919 221.146C72.2618 221.132 72.2348 221.112 72.2124 221.087C72.1899 221.063 72.1726 221.034 72.1613 221.003C72.1501 220.971 72.1451 220.938 72.1466 220.905C72.1525 220.839 72.183 220.777 72.2321 220.733C72.2811 220.688 72.3451 220.663 72.4115 220.664C76.1895 220.864 81.9918 221.14 88.1355 221.34C91.4369 221.446 94.3145 221.517 96.9273 221.552C96.9606 221.551 96.9938 221.556 97.0251 221.567C97.0564 221.578 97.0851 221.596 97.1097 221.618C97.1343 221.64 97.1542 221.668 97.1684 221.698C97.1825 221.728 97.1906 221.76 97.1921 221.794C97.1937 221.827 97.1887 221.86 97.1774 221.891C97.1661 221.923 97.1488 221.951 97.1263 221.976C97.1039 222.001 97.0769 222.02 97.0468 222.035C97.0167 222.049 96.9841 222.057 96.9509 222.058Z" fill="white"/>
<path d="M75.0773 190.004C75.0773 190.004 80.2088 189.239 84.4929 190.387C87.1594 191.135 89.5902 192.553 91.5546 194.506L87.3411 204.01C87.3411 204.01 78.0726 206.005 74.0062 200.026L75.0773 190.004Z" fill="#9AB3DA"/>
<path d="M77.8372 202.592H77.7901C77.7572 202.586 77.7258 202.574 77.6976 202.556C77.6694 202.538 77.645 202.515 77.6259 202.487C77.6067 202.46 77.5932 202.429 77.586 202.397C77.5789 202.364 77.5782 202.33 77.5842 202.297L79.1201 193.694C79.1219 193.658 79.1314 193.623 79.1478 193.591C79.1643 193.559 79.1873 193.531 79.2154 193.509C79.2435 193.486 79.276 193.47 79.3108 193.462C79.3457 193.453 79.3819 193.452 79.4173 193.458C79.4526 193.464 79.4862 193.478 79.5158 193.498C79.5454 193.518 79.5704 193.545 79.589 193.576C79.6077 193.606 79.6196 193.64 79.6239 193.676C79.6283 193.712 79.6251 193.748 79.6144 193.782L78.0844 202.362C78.0786 202.424 78.0502 202.482 78.0046 202.524C77.959 202.566 77.8994 202.59 77.8372 202.592Z" fill="#6B81BE"/>
<path d="M105.066 157.667C105.066 161.757 88.5886 194.294 88.5886 194.294C88.5886 194.294 81.3151 194.883 77.2487 190.846C77.2487 190.846 79.1671 178.205 80.3147 171.926C80.9294 168.314 82.1743 164.838 83.9926 161.657C83.7653 161.146 83.6108 160.605 83.5336 160.051C83.5303 159.515 83.7228 158.996 84.075 158.591C84.075 158.591 77.1604 152.765 70.0811 146.581C66.2442 143.22 62.3662 139.76 59.4885 137.053C58.2704 135.876 57.2347 134.876 56.4755 134.07C50.6496 127.867 47.3542 118.057 47.7367 110.531C48.1192 103.004 59.465 91.2992 71.5699 105.552C71.5523 105.564 105.066 147.04 105.066 157.667Z" fill="#6B81BE"/>
<path d="M70.0517 146.581C66.2148 143.22 62.3368 139.76 59.4591 137.053C59.5221 136.935 59.5992 136.824 59.6886 136.724C62.7546 133.046 65.8206 128.35 65.8206 128.35C65.8206 128.35 68.6747 140.843 70.0517 146.581Z" fill="#404B7C"/>
<path d="M81.3622 191.734H81.3092C81.2437 191.72 81.1865 191.681 81.1501 191.624C81.1136 191.568 81.101 191.5 81.115 191.434C81.115 191.316 83.5866 179.506 85.2343 173.745C86.5333 169.508 88.1544 165.376 90.0834 161.387C89.7853 161.006 89.5836 160.559 89.4955 160.083C89.4074 159.608 89.4355 159.118 89.5773 158.656L65.3733 133.94C65.3341 133.891 65.3144 133.83 65.3181 133.767C65.3217 133.704 65.3485 133.645 65.3932 133.601C65.4379 133.557 65.4974 133.532 65.56 133.529C65.6226 133.526 65.684 133.547 65.7323 133.587L90.0186 158.385C90.0539 158.421 90.0777 158.466 90.0872 158.516C90.0966 158.565 90.0912 158.616 90.0716 158.662C89.9196 159.082 89.8831 159.535 89.9659 159.974C90.0487 160.413 90.2478 160.821 90.5424 161.157C90.5747 161.195 90.5953 161.241 90.6016 161.29C90.6078 161.339 90.5995 161.389 90.5777 161.434C88.6327 165.444 86.9979 169.597 85.6875 173.856C84.075 179.606 81.627 191.393 81.6035 191.511C81.5965 191.571 81.5683 191.626 81.5241 191.667C81.4799 191.708 81.4224 191.732 81.3622 191.734Z" fill="#9AB3DA"/>
<path d="M55.0927 226.366C55.0927 226.89 55.0632 227.384 55.0397 227.796C54.9985 228.384 54.9514 228.802 54.9514 228.802C51.2735 230.986 45.4888 230.95 42.5405 229.491C39.5922 228.031 34.7609 221.488 34.7609 221.488C34.9553 220.522 35.2008 219.567 35.4965 218.628C36.4969 215.438 37.9857 212.384 39.0685 211.566C42.2875 210.071 46.1302 213.019 46.4951 213.673C47.1464 215.392 47.9831 217.036 48.9902 218.575C49.3541 219.115 49.8056 219.59 50.326 219.981C52.1444 221.358 54.4454 221.746 54.8867 222.87C55.1692 223.524 55.1162 225.324 55.0927 226.366Z" fill="#404B7C"/>
<path d="M40.3301 217.003C40.7448 215.591 40.401 214.246 39.5621 214C38.7232 213.753 37.707 214.699 37.2923 216.112C36.8776 217.524 37.2215 218.869 38.0603 219.115C38.8992 219.362 39.9154 218.416 40.3301 217.003Z" fill="#F68D88"/>
<path d="M55.0926 226.366C55.0926 226.89 55.0632 227.384 55.0397 227.796C53.6862 227.99 49.6022 228.537 47.3307 228.384C45.6647 228.266 44.0453 227.781 42.5876 226.966C42.5952 226.667 42.6227 226.368 42.6699 226.072C42.8406 224.865 43.4997 222.047 45.3593 220.964C46.8599 220.087 48.8901 219.952 50.3378 219.993C52.1562 221.37 54.4571 221.758 54.8984 222.882C55.1691 223.524 55.1162 225.324 55.0926 226.366Z" fill="#F68D88"/>
<path d="M55.0927 226.366C55.0927 226.89 55.0632 227.384 55.0397 227.796C54.9985 228.384 54.9514 228.802 54.9514 228.802C51.2735 230.986 45.4888 230.95 42.5405 229.491C39.5922 228.031 34.7609 221.488 34.7609 221.488C34.9553 220.522 35.2008 219.567 35.4965 218.628C36.3203 219.752 39.5569 224.042 42.6641 226.078C43.1214 226.385 43.6084 226.645 44.1176 226.854C47.2836 228.108 52.9859 226.89 55.0927 226.366Z" fill="#F68D88"/>
<path d="M47.7308 227.649C46.4694 227.682 45.2128 227.482 44.0234 227.06C43.4975 226.845 42.9947 226.577 42.5228 226.26C39.9747 224.589 37.3384 221.423 35.9908 219.681C35.9703 219.655 35.9552 219.625 35.9463 219.592C35.9374 219.56 35.935 219.527 35.9391 219.494C35.9474 219.427 35.9818 219.366 36.0349 219.325C36.088 219.284 36.1553 219.265 36.222 219.273C36.2888 219.282 36.3496 219.316 36.3909 219.369C37.715 221.087 40.3102 224.206 42.7994 225.842C43.2416 226.14 43.7129 226.392 44.2059 226.596C46.8364 227.643 51.3558 226.913 53.8157 226.384C53.8799 226.373 53.9457 226.387 53.9995 226.424C54.0533 226.461 54.0909 226.517 54.1045 226.58C54.1182 226.644 54.1068 226.71 54.0727 226.766C54.0386 226.821 53.9845 226.861 53.9216 226.878C51.889 227.341 49.815 227.599 47.7308 227.649Z" fill="white"/>
<path d="M48.1074 204.563L46.8834 207.817L44.659 213.743C43.7746 213.944 42.8551 213.931 41.9769 213.705C41.0987 213.478 40.2872 213.046 39.6099 212.443L40.6044 207.994L41.6754 203.168L48.1074 204.563Z" fill="#ECBDBB"/>
<path d="M41.6695 203.18L48.1075 204.563L46.8834 207.817C44.8462 208.463 42.6687 208.524 40.5985 207.994L41.6695 203.18Z" fill="#404B7C"/>
<path d="M40.7515 191.381L38.4506 202.562C38.4506 202.562 41.287 205.705 45.118 206.47C47.5233 206.923 49.9921 206.923 52.3974 206.47L56.8404 197.431C56.8404 197.431 53.8569 189.31 40.7515 191.381Z" fill="#9AB3DA"/>
<path d="M42.058 204.657H42.005C41.9395 204.643 41.8822 204.604 41.8458 204.547C41.8094 204.491 41.7968 204.423 41.8108 204.357L43.3408 196.848C43.3449 196.813 43.3561 196.78 43.3738 196.75C43.3915 196.719 43.4153 196.693 43.4436 196.673C43.472 196.652 43.5043 196.638 43.5385 196.63C43.5727 196.623 43.608 196.623 43.6424 196.63C43.6767 196.636 43.7092 196.65 43.7378 196.671C43.7664 196.691 43.7905 196.717 43.8087 196.747C43.8268 196.776 43.8385 196.81 43.843 196.845C43.8476 196.879 43.8449 196.915 43.8351 196.948L42.3051 204.457C42.293 204.514 42.2619 204.564 42.2169 204.601C42.1719 204.637 42.1158 204.657 42.058 204.657Z" fill="#6B81BE"/>
<path d="M61.9778 134.093C61.9303 134.093 61.8839 134.079 61.8439 134.053C61.8039 134.027 61.7719 133.991 61.7516 133.948C61.7314 133.905 61.7236 133.857 61.7293 133.81C61.7349 133.763 61.7538 133.718 61.7836 133.681C63.7197 131.298 66.6032 127.367 66.6032 126.308C66.6032 125.131 63.4666 114.538 61.813 109.118C61.7994 109.056 61.8096 108.991 61.8418 108.936C61.8739 108.881 61.9255 108.841 61.9864 108.822C62.0472 108.803 62.1128 108.808 62.1701 108.836C62.2274 108.864 62.2722 108.912 62.2956 108.971C62.4898 109.613 67.1093 124.76 67.1093 126.308C67.1093 127.855 62.6781 133.369 62.172 133.999C62.1486 134.028 62.119 134.052 62.0854 134.068C62.0519 134.084 62.0151 134.093 61.9778 134.093Z" fill="#9AB3DA"/>
<path d="M66.3502 171.002C65.2792 174.986 53.7862 198.661 53.7862 198.661C53.7862 198.661 46.4303 199.073 41.9402 193.953C41.9402 193.953 45.9242 177.193 46.7422 173.621C47.1188 171.73 47.7732 169.906 48.6842 168.207C48.6842 168.207 47.1541 167.489 47.3542 165.035C47.3542 165.035 39.1979 150.194 34.0959 134.864C32.6276 130.576 31.4924 126.181 30.7004 121.718C30.5027 120.551 30.4023 119.37 30.4002 118.187C30.3708 101.909 49.5198 93.9356 55.6282 104.493C55.6282 104.493 65.438 136.059 65.744 137.901C66.0501 139.743 67.4153 167.018 66.3502 171.002Z" fill="#6B81BE"/>
<path d="M48.0604 116.092C39.1567 122.224 35.2787 131.392 34.0841 134.852C32.6158 130.564 31.4806 126.169 30.6886 121.706C30.491 120.539 30.3906 119.358 30.3885 118.175C39.3862 113.191 56.5462 110.248 48.0604 116.092Z" fill="#404B7C"/>
<path d="M45.4005 194.906H45.3593C45.293 194.896 45.2334 194.86 45.1937 194.806C45.1539 194.752 45.1373 194.684 45.1474 194.618C46.7834 184.408 51.9267 170.679 52.4681 169.249C52.1315 168.794 51.9242 168.257 51.8683 167.695C51.8123 167.132 51.9098 166.565 52.1503 166.053C42.9701 149.935 33.3956 119.44 33.3191 119.134C33.309 119.102 33.3053 119.069 33.3082 119.036C33.311 119.003 33.3204 118.971 33.3357 118.941C33.351 118.912 33.3719 118.885 33.3974 118.864C33.4228 118.843 33.4522 118.826 33.4839 118.816C33.5155 118.806 33.5489 118.803 33.582 118.805C33.6151 118.808 33.6474 118.818 33.6769 118.833C33.7064 118.848 33.7326 118.869 33.754 118.895C33.7754 118.92 33.7916 118.949 33.8016 118.981C33.8958 119.287 43.5056 149.894 52.6799 165.924C52.7055 165.964 52.7192 166.011 52.7192 166.059C52.7192 166.107 52.7055 166.154 52.6799 166.194C52.6446 166.242 51.8796 167.413 52.9859 169.078C53.004 169.114 53.0134 169.153 53.0134 169.193C53.0134 169.233 53.004 169.272 52.9859 169.307C52.9271 169.455 47.3542 184.019 45.6418 194.694C45.6323 194.752 45.603 194.805 45.559 194.843C45.515 194.882 45.459 194.904 45.4005 194.906Z" fill="#9AB3DA"/>
<path d="M40.4985 135.435C40.4484 135.434 40.3997 135.418 40.3586 135.39C40.3175 135.361 40.2858 135.321 40.2675 135.274C40.2493 135.228 40.2452 135.177 40.256 135.128C40.2667 135.079 40.2917 135.034 40.3278 134.999C40.3278 134.999 43.1231 132.375 43.4173 130.044C43.7115 127.714 40.8986 117.375 40.8692 117.269C40.8603 117.237 40.8578 117.203 40.8619 117.17C40.866 117.137 40.8765 117.105 40.8929 117.076C40.9093 117.047 40.9312 117.022 40.9574 117.001C40.9837 116.981 41.0137 116.966 41.0458 116.957C41.0778 116.948 41.1113 116.945 41.1444 116.949C41.1774 116.953 41.2093 116.964 41.2383 116.98C41.2672 116.997 41.2927 117.019 41.3132 117.045C41.3336 117.071 41.3488 117.101 41.3576 117.133C41.4753 117.563 44.2294 127.632 43.9175 130.08C43.6056 132.528 40.7927 135.229 40.6691 135.341C40.6483 135.367 40.6225 135.389 40.5932 135.405C40.5639 135.421 40.5317 135.431 40.4985 135.435Z" fill="#9AB3DA"/>
<path d="M97.3746 83.1194C95.6056 82.9131 93.8521 82.5907 92.1254 82.1543C87.6412 81.1363 82.3567 79.6651 82.3567 79.6651L85.3991 72.1444L87.1645 67.7132L92.5255 70.4731L90.1246 48.2523C88.6153 47.4906 87.4248 46.2188 86.7644 44.6626C86.4996 43.9447 87.4058 43.7799 88.3179 44.3213C89.2301 44.8627 91.943 45.3923 91.943 45.3923C92.6738 44.8274 93.3659 44.214 94.0144 43.5563C94.3204 43.1208 93.1905 39.8077 93.0964 38.6837C93.0022 37.5597 94.544 37.5067 95.6974 39.6665C95.6503 39.5193 95.2619 38.3306 94.9854 37.1242C94.6617 35.6942 96.8802 35.5824 97.6923 39.0427L98.069 40.2902C98.069 40.0784 97.8218 38.4777 97.6394 37.4302C97.3981 36.012 99.0164 35.9414 99.6637 38.5248C100.077 39.8155 100.361 41.1441 100.511 42.4911C100.54 42.7924 100.508 43.0963 100.418 43.3852C100.328 43.6742 100.182 43.9423 99.9874 44.1742C98.2867 46.1926 95.9446 48.4877 95.9446 48.4877C95.9446 48.4877 103.036 72.2327 103.265 76.2166C103.495 80.2006 100.823 83.3431 97.3746 83.1194Z" fill="#ECBDBB"/>
<path d="M92.1254 82.1544C87.6412 81.1363 82.3567 79.6651 82.3567 79.6651L85.3991 72.1444L92.1254 82.1544Z" fill="#404B7C"/>
<path d="M94.8088 43.3327C94.7722 43.3336 94.7362 43.3231 94.7058 43.3026C94.6754 43.2822 94.6522 43.2528 94.6392 43.2185C94.6263 43.1842 94.6244 43.1468 94.6337 43.1113C94.6429 43.0759 94.663 43.0443 94.6911 43.0208L95.3502 42.4323C95.4469 42.3468 95.5242 42.2417 95.5769 42.124C95.6297 42.0063 95.6567 41.8787 95.6562 41.7497C95.6562 41.3671 95.6562 40.7728 95.5738 40.1196C95.5692 40.0728 95.5833 40.026 95.6131 39.9896C95.6429 39.9532 95.6859 39.9301 95.7327 39.9254C95.7795 39.9207 95.8263 39.9348 95.8627 39.9646C95.8992 39.9944 95.9222 40.0374 95.9269 40.0843C95.9917 40.7492 96.0093 41.3554 96.0093 41.7497C96.0101 41.9286 95.9727 42.1057 95.8996 42.2691C95.8265 42.4324 95.7195 42.5784 95.5856 42.6971L94.9265 43.2856C94.8945 43.3153 94.8525 43.3321 94.8088 43.3327Z" fill="#404B7C"/>
<path d="M97.0686 76.8581C97.033 76.8582 96.9983 76.8476 96.9689 76.8276C96.9395 76.8077 96.9168 76.7793 96.9038 76.7463C95.9328 74.3571 92.7845 71.1675 92.7845 71.1322C92.7517 71.0987 92.7336 71.0535 92.7341 71.0066C92.7347 70.9597 92.7539 70.9149 92.7874 70.8821C92.821 70.8493 92.8662 70.8312 92.9131 70.8318C92.96 70.8324 93.0047 70.8515 93.0375 70.8851C93.167 71.0204 96.2565 74.157 97.251 76.6109C97.2596 76.6326 97.2638 76.6557 97.2634 76.6789C97.263 76.7022 97.258 76.7251 97.2487 76.7465C97.2394 76.7678 97.226 76.7871 97.2092 76.8032C97.1924 76.8193 97.1726 76.832 97.151 76.8404L97.0686 76.8581Z" fill="#404B7C"/>
<path d="M97.5394 42.7383C97.5394 42.7383 97.5982 40.3844 97.5394 39.7489C97.4805 39.1133 98.8399 38.619 99.2224 40.7669C99.3884 41.6894 99.4711 42.6249 99.4696 43.5622L97.5394 42.7383Z" fill="#ECBDBB"/>
<path d="M99.4636 43.7387C99.4405 43.7379 99.4176 43.7326 99.3965 43.723C99.3754 43.7135 99.3564 43.6998 99.3405 43.6829C99.3247 43.6659 99.3123 43.646 99.3041 43.6243C99.296 43.6026 99.2922 43.5795 99.293 43.5563C99.2926 42.6308 99.2099 41.7072 99.0458 40.7963C98.8457 39.6782 98.3809 39.3369 98.0395 39.3781C97.9505 39.3854 97.8674 39.4256 97.8065 39.4909C97.7456 39.5562 97.7112 39.6419 97.71 39.7312C97.7688 40.3844 97.71 42.6441 97.71 42.7383C97.7057 42.7841 97.6848 42.8268 97.6511 42.8582C97.6175 42.8897 97.5736 42.9077 97.5276 42.909C97.5044 42.9082 97.4816 42.9029 97.4604 42.8933C97.4393 42.8837 97.4203 42.8701 97.4044 42.8531C97.3886 42.8362 97.3762 42.8163 97.3681 42.7945C97.3599 42.7728 97.3561 42.7497 97.3569 42.7265C97.3569 42.7265 97.4158 40.3726 97.3569 39.7842C97.3485 39.6035 97.4097 39.4265 97.528 39.2896C97.6462 39.1527 97.8125 39.0665 97.9925 39.0486C98.5044 38.9779 99.1694 39.3899 99.393 40.7551C99.5631 41.689 99.6478 42.6365 99.6461 43.5857C99.6402 43.6294 99.6183 43.6693 99.5845 43.6976C99.5508 43.7259 99.5077 43.7406 99.4636 43.7387Z" fill="#404B7C"/>
<path d="M85.1814 84.42C85.1814 84.42 83.463 84.008 81.1209 83.4784C77.9314 82.7605 73.5884 81.8307 70.852 81.4305C66.0971 80.742 60.589 73.3861 63.0312 65.0415C63.09 64.8355 63.1548 64.6237 63.2195 64.453C66.1324 55.7436 73.5766 57.9798 73.5766 57.9798L88.3945 67.0482C88.3945 67.0482 91.0661 77.523 85.1814 84.42Z" fill="#F68D88"/>
<path d="M81.1327 83.4725C77.9431 82.7546 73.6002 81.8248 70.8638 81.4246C66.1089 80.7361 60.6008 73.3802 63.043 65.0356C63.1018 64.8297 63.1665 64.6178 63.2313 64.4471C65.7617 65.3769 68.3333 66.2538 68.3333 66.2538L81.1327 83.4725Z" fill="#404B7C"/>
<path d="M82.8922 82.6781C82.8447 82.6776 82.7983 82.6637 82.7583 82.638C82.7183 82.6124 82.6863 82.5759 82.6661 82.533C82.6458 82.49 82.6381 82.4422 82.6437 82.395C82.6494 82.3478 82.6682 82.3031 82.698 82.2662C87.4647 76.4579 85.2755 66.6421 85.252 66.548C85.2447 66.5155 85.2438 66.4819 85.2494 66.4492C85.2551 66.4164 85.2671 66.385 85.2849 66.3568C85.3026 66.3287 85.3258 66.3043 85.3529 66.2851C85.3801 66.2659 85.4108 66.2523 85.4433 66.2449C85.4757 66.2376 85.5093 66.2367 85.5421 66.2423C85.5749 66.248 85.6063 66.26 85.6344 66.2778C85.6625 66.2955 85.6869 66.3187 85.7061 66.3459C85.7253 66.373 85.739 66.4037 85.7463 66.4362C85.7463 66.5362 88.0178 76.5874 83.0923 82.5898C83.0677 82.6186 83.0369 82.6414 83.0023 82.6567C82.9677 82.672 82.93 82.6793 82.8922 82.6781Z" fill="#ECBDBB"/>
<path d="M79.5202 112.92C79.5202 112.92 73.6943 112.614 54.8043 117.21C35.9143 121.806 27.6226 132.846 27.6226 132.846C26.4549 126.332 25.7723 119.741 25.5806 113.126C25.5806 113.126 24.0506 109.654 24.1506 108.53C24.4196 107.174 24.7955 105.842 25.2746 104.546C25.2746 104.546 25.5806 102.81 28.1346 91.5994C28.8231 88.5687 30.0707 84.2317 31.5242 79.5121C33.172 74.1805 35.0845 68.3311 36.7617 63.3702C39.1156 56.438 40.9398 51.1535 40.9398 51.1535L55.993 50.8475C62.6134 51.9832 73.5943 57.9798 73.5943 57.9798C73.5943 57.9798 75.6422 61.5577 75.1243 71.6736C74.6065 81.7895 73.1882 97.0075 73.1882 97.0075C73.1882 97.0075 76.0424 100.791 76.1306 101.809C76.2189 102.827 75.0066 105.181 75.3126 106.617C75.6187 108.053 79.5202 112.92 79.5202 112.92Z" fill="#F68D88"/>
<path d="M41.7225 62.2109L31.5242 79.4827C33.172 74.1511 35.0845 68.3017 36.7617 63.3408L41.7225 62.2109Z" fill="#404B7C"/>
<path d="M74.5888 80.6184C74.5556 80.6162 74.5231 80.6074 74.4932 80.5926C74.4634 80.5777 74.4368 80.5571 74.4149 80.532C74.393 80.5068 74.3763 80.4776 74.3658 80.446C74.3552 80.4144 74.351 80.381 74.3534 80.3477C74.6006 76.9934 74.783 74.0628 74.9066 71.6383C75.2185 65.4534 74.5829 61.7166 73.9945 59.6746C73.9757 59.6098 73.9835 59.5403 74.0161 59.4812C74.0486 59.4222 74.1033 59.3785 74.1681 59.3598C74.2328 59.341 74.3024 59.3488 74.3614 59.3814C74.4205 59.4139 74.4642 59.4686 74.4829 59.5334C75.0714 61.6166 75.7305 65.4181 75.4127 71.6618C75.2891 74.0922 75.1008 77.0287 74.8595 80.383C74.8573 80.4163 74.8485 80.4488 74.8337 80.4786C74.8188 80.5085 74.7982 80.5351 74.7731 80.557C74.7479 80.5789 74.7187 80.5955 74.6871 80.6061C74.6555 80.6166 74.6221 80.6208 74.5888 80.6184Z" fill="#ECBDBB"/>
<path d="M39.6805 110.572C39.6195 110.573 39.56 110.553 39.513 110.514C39.466 110.475 39.4346 110.421 39.4245 110.36C39.4145 110.3 39.4265 110.239 39.4584 110.187C39.4903 110.135 39.5399 110.096 39.5981 110.077C49.7763 106.593 60.5254 105.081 71.2698 105.623C71.3031 105.626 71.3355 105.635 71.3651 105.651C71.3947 105.666 71.4209 105.687 71.4422 105.713C71.4636 105.739 71.4796 105.769 71.4894 105.801C71.4992 105.832 71.5026 105.866 71.4993 105.899C71.4972 105.933 71.4882 105.966 71.4729 105.996C71.4576 106.026 71.4364 106.052 71.4105 106.074C71.3846 106.095 71.3546 106.111 71.3223 106.121C71.29 106.13 71.2561 106.133 71.2227 106.129C60.5499 105.595 49.873 107.099 39.7629 110.56L39.6805 110.572Z" fill="#ECBDBB"/>
<path d="M40.675 102.598C40.617 102.596 40.5615 102.573 40.5178 102.535C40.4742 102.497 40.4451 102.445 40.4355 102.387C40.4258 102.33 40.4362 102.271 40.4648 102.22C40.4934 102.17 40.5385 102.131 40.5926 102.11C40.8221 102.027 63.6667 93.9474 68.9336 89.2102C68.9843 89.172 69.0475 89.1544 69.1107 89.1607C69.1739 89.167 69.2324 89.1968 69.2746 89.2442C69.3168 89.2916 69.3396 89.3531 69.3386 89.4166C69.3376 89.48 69.3127 89.5408 69.269 89.5868C65.5204 92.9588 53.4449 97.8255 46.2596 100.568C57.4407 98.002 69.9458 97.5842 70.0929 97.5783C70.16 97.5783 70.2244 97.605 70.2718 97.6524C70.3193 97.6999 70.3459 97.7642 70.3459 97.8313C70.3459 97.8985 70.3193 97.9628 70.2718 98.0103C70.2244 98.0577 70.16 98.0844 70.0929 98.0844C69.9222 98.0844 52.827 98.6729 40.7398 102.592L40.675 102.598Z" fill="#ECBDBB"/>
<path d="M50.9027 49.0173L49.561 55.7612C49.561 55.7612 52.8918 58.6742 56.9934 58.633C61.0951 58.5918 62.9723 57.3678 62.9723 57.3678L63.5608 51.1594C61.7702 49.8277 59.6895 48.9393 57.4892 48.567C55.289 48.1946 53.0318 48.349 50.9027 49.0173Z" fill="#F68D88"/>
<path d="M56.9346 58.8861C52.8152 58.8861 49.5551 56.0732 49.4197 55.9437C49.3859 55.9144 49.3604 55.8766 49.3459 55.8342C49.3315 55.7918 49.3285 55.7463 49.3374 55.7024L50.1553 51.5831C50.1731 51.5221 50.213 51.4701 50.2673 51.4372C50.3216 51.4044 50.3863 51.3931 50.4485 51.4057C50.5107 51.4183 50.5659 51.4538 50.6032 51.5052C50.6405 51.5566 50.657 51.6201 50.6497 51.6831L49.8611 55.6377C50.4496 56.1261 53.4743 58.3918 57.017 58.3564C60.4595 58.3211 62.3132 57.4325 62.7546 57.1795L63.0782 53.6486C63.0804 53.6151 63.0894 53.5823 63.1047 53.5523C63.1199 53.5223 63.1412 53.4958 63.1671 53.4743C63.193 53.4528 63.223 53.4368 63.2553 53.4273C63.2875 53.4178 63.3214 53.4151 63.3548 53.4191C63.3881 53.4221 63.4205 53.4316 63.4501 53.4471C63.4797 53.4627 63.5059 53.4839 63.5272 53.5096C63.5486 53.5353 63.5646 53.565 63.5744 53.5969C63.5842 53.6289 63.5876 53.6625 63.5843 53.6957L63.2489 57.3501C63.2456 57.3879 63.2338 57.4244 63.2144 57.457C63.1951 57.4896 63.1686 57.5175 63.1371 57.5385C63.0606 57.5914 61.148 58.8037 57.0228 58.8449H56.9346V58.8861Z" fill="#ECBDBB"/>
<path d="M59.7534 44.9333L59.3473 48.8938L59.0648 51.6655C57.558 51.6523 56.0619 51.4102 54.6277 50.9475L55.9106 44.8745L56.1813 43.6093L59.7534 44.9333Z" fill="#ECBDBB"/>
<path d="M59.7534 44.9333L59.3473 48.8938C57.7343 48.0373 56.5062 46.6009 55.9106 44.8745L56.1813 43.6093L59.7534 44.9333Z" fill="#404B7C"/>
<path d="M59.4003 51.9185H59.0649C57.532 51.9054 56.0101 51.6594 54.5513 51.1888C53.7233 50.936 52.9319 50.576 52.1974 50.1178C52.1479 50.078 52.1152 50.0211 52.1058 49.9583C52.0963 49.8955 52.1108 49.8315 52.1464 49.7789C52.1819 49.7263 52.2359 49.689 52.2977 49.6744C52.3595 49.6598 52.4245 49.6689 52.4798 49.7C53.1828 50.132 53.9383 50.4722 54.7278 50.7121C56.1391 51.1676 57.6114 51.4057 59.0943 51.4183C60.1468 51.4376 61.1988 51.3588 62.2367 51.1829C62.2696 51.1775 62.3032 51.1786 62.3356 51.1862C62.368 51.1938 62.3986 51.2077 62.4257 51.2271C62.4527 51.2465 62.4757 51.271 62.4932 51.2993C62.5108 51.3275 62.5226 51.359 62.528 51.3918C62.5335 51.4247 62.5323 51.4583 62.5248 51.4907C62.5172 51.5231 62.5033 51.5537 62.4839 51.5808C62.4645 51.6078 62.44 51.6308 62.4117 51.6483C62.3834 51.6659 62.352 51.6777 62.3191 51.6831C61.3544 51.8423 60.3781 51.921 59.4003 51.9185Z" fill="#ECBDBB"/>
<path d="M56.9934 43.9623C56.9934 43.9623 53.5214 46.6693 51.1087 41.0494C51.1087 41.0494 46.1007 40.4609 45.9477 37.9364C45.7947 35.4118 48.3487 35.1764 48.3487 35.1764C47.8672 33.1322 47.9712 30.9937 48.6487 29.0059C49.3263 27.018 50.55 25.2612 52.1797 23.9365C57.8997 19.0816 58.4116 24.6015 58.4116 24.6015C58.4116 24.6015 61.5776 19.2405 65.9206 19.4935C70.2635 19.7466 66.2796 26.0315 66.2796 26.0315C66.2796 26.0315 71.3345 23.5305 72.9705 25.5725C74.6065 27.6145 71.4405 33.0285 68.6276 34.5114C68.6276 34.5114 71.4875 34.4114 71.3875 36.9124C71.2875 39.4134 66.6797 42.1204 63.5726 42.3264C63.5843 42.3264 60.6243 47.9463 56.9934 43.9623Z" fill="#404B7C"/>
<path d="M64.3082 39.5135C64.4553 38.4601 65.0143 37.5597 65.7794 37.3067C66.0087 37.2269 66.256 37.2139 66.4925 37.2691C66.7289 37.3243 66.9449 37.4455 67.1152 37.6186C68.4393 38.7955 66.8033 43.7093 64.0081 41.679L64.3082 39.5135Z" fill="#ECBDBB"/>
<path d="M64.5848 40.8434H64.5377C64.5152 40.8373 64.4942 40.8268 64.4759 40.8125C64.4575 40.7982 64.4421 40.7805 64.4306 40.7602C64.4191 40.74 64.4118 40.7177 64.4089 40.6946C64.4061 40.6715 64.4079 40.6481 64.4141 40.6257C64.7083 39.6017 65.1556 38.978 65.7499 38.7661C65.9703 38.6987 66.2029 38.6811 66.4309 38.7147C66.6589 38.7483 66.8766 38.8322 67.0681 38.9603C67.1064 38.9876 67.1322 39.029 67.1399 39.0754C67.1476 39.1217 67.1366 39.1692 67.1093 39.2075C67.082 39.2457 67.0406 39.2715 66.9943 39.2792C66.9479 39.287 66.9004 39.276 66.8622 39.2487C66.7158 39.1536 66.5507 39.0912 66.378 39.0658C66.2054 39.0404 66.0293 39.0526 65.8618 39.1015C65.3851 39.2722 65.0085 39.8195 64.7495 40.7198C64.7385 40.7551 64.7166 40.786 64.687 40.8081C64.6575 40.8303 64.6217 40.8427 64.5848 40.8434Z" fill="#404B7C"/>
<path d="M65.9323 40.8434C65.8903 40.8424 65.8501 40.8264 65.8188 40.7984C65.7875 40.7703 65.7673 40.7321 65.7617 40.6904C65.7615 40.1479 65.6721 39.6091 65.4969 39.0956C65.4797 39.0519 65.4806 39.0032 65.4994 38.9602C65.5181 38.9171 65.5532 38.8833 65.5969 38.8661C65.6406 38.849 65.6894 38.8499 65.7324 38.8686C65.7754 38.8874 65.8093 38.9225 65.8264 38.9662C66.0196 39.5225 66.1171 40.1074 66.1148 40.6963C66.1076 40.7389 66.0851 40.7774 66.0515 40.8045C66.0179 40.8316 65.9755 40.8454 65.9323 40.8434Z" fill="#404B7C"/>
<path d="M53.5979 32.0104C52.6622 37.2184 53.5214 40.8964 54.8219 42.8383C56.1225 44.7803 59.1649 47.0753 61.7954 46.2633C64.4259 45.4512 65.0438 41.3083 65.6263 35.2058C66.3973 27.1555 54.7513 25.6254 53.5979 32.0104Z" fill="#ECBDBB"/>
<path d="M53.8157 39.8371C54.0284 38.3574 54.4014 36.9051 54.9279 35.5059C54.9279 35.5059 60.0594 36.0414 61.4011 31.675C61.4011 31.675 61.4011 35.2529 64.5671 35.606C65.0344 36.9095 65.2151 38.2985 65.0967 39.6782C65.0967 39.6782 66.9798 35.0293 65.8323 31.0041C64.6848 26.9789 56.8286 25.4136 53.8039 29.2034C50.7791 32.9931 52.1326 38.7779 53.8157 39.8371Z" fill="#404B7C"/>
<path d="M54.2158 39.5135C54.1284 38.9928 53.8933 38.5081 53.5387 38.117C53.1841 37.7258 52.7247 37.4446 52.215 37.3067C51.9082 37.226 51.5876 37.2122 51.2749 37.266C50.9623 37.3198 50.6648 37.44 50.4025 37.6186C48.6018 38.7955 50.8262 43.7093 54.616 41.679L54.2158 39.5135Z" fill="#ECBDBB"/>
<path d="M53.8157 40.8434C53.7801 40.8435 53.7454 40.8329 53.716 40.8129C53.6866 40.793 53.6639 40.7646 53.6509 40.7316C53.5485 40.3868 53.3737 40.0678 53.1383 39.7958C52.9029 39.5239 52.6122 39.3052 52.2856 39.1545C51.7501 38.9769 51.167 39.0106 50.6556 39.2486C50.6144 39.2681 50.5674 39.2709 50.5243 39.2566C50.4811 39.2422 50.4452 39.2117 50.424 39.1715C50.4027 39.1313 50.3978 39.0845 50.4102 39.0407C50.4227 38.997 50.4515 38.9597 50.4908 38.9367C51.0884 38.6489 51.7749 38.6067 52.4033 38.8191C52.7759 38.9844 53.1088 39.2274 53.3798 39.5319C53.6508 39.8364 53.8536 40.1952 53.9746 40.5845C53.9831 40.6061 53.9873 40.6292 53.9869 40.6525C53.9865 40.6757 53.9815 40.6987 53.9723 40.72C53.963 40.7414 53.9495 40.7606 53.9328 40.7768C53.916 40.7929 53.8962 40.8055 53.8745 40.814L53.8157 40.8434Z" fill="#404B7C"/>
<path d="M52.0149 40.8434C51.9691 40.8434 51.9251 40.8256 51.8921 40.7938C51.8592 40.7619 51.8399 40.7185 51.8384 40.6727C51.8338 40.0619 51.9686 39.4581 52.2327 38.9073C52.2429 38.8858 52.2573 38.8665 52.2752 38.8507C52.293 38.8349 52.3139 38.8228 52.3365 38.8153C52.3591 38.8078 52.383 38.8049 52.4068 38.8069C52.4305 38.8088 52.4537 38.8156 52.4747 38.8267C52.4958 38.8379 52.5144 38.8531 52.5294 38.8717C52.5444 38.8902 52.5555 38.9116 52.5621 38.9345C52.5686 38.9574 52.5704 38.9814 52.5674 39.0051C52.5644 39.0287 52.5566 39.0515 52.5446 39.0721C52.3134 39.5637 52.1928 40.1 52.1915 40.6433C52.1923 40.6665 52.1885 40.6896 52.1803 40.7113C52.1722 40.7331 52.1598 40.753 52.144 40.7699C52.1281 40.7868 52.1091 40.8005 52.088 40.8101C52.0668 40.8197 52.044 40.825 52.0208 40.8257L52.0149 40.8434Z" fill="#404B7C"/>
<path d="M61.2187 42.6265C61.1751 42.6286 61.1322 42.6145 61.0984 42.5868C61.0646 42.5592 61.0422 42.52 61.0356 42.4768C61.029 42.4336 61.0387 42.3895 61.0627 42.353C61.0868 42.3165 61.1235 42.2903 61.1657 42.2793C61.4212 42.228 61.6596 42.1132 61.8591 41.9456C62.0586 41.778 62.2128 41.5629 62.3074 41.3201C61.666 40.4579 61.3212 39.4111 61.3246 38.3365C61.3246 38.3131 61.3293 38.2899 61.3386 38.2684C61.3479 38.2468 61.3616 38.2275 61.3787 38.2115C61.3958 38.1955 61.416 38.1831 61.4381 38.1753C61.4602 38.1674 61.4837 38.1642 61.507 38.1658C61.5302 38.1666 61.553 38.1719 61.5742 38.1815C61.5953 38.1911 61.6143 38.2047 61.6302 38.2217C61.646 38.2386 61.6584 38.2585 61.6665 38.2802C61.6747 38.302 61.6785 38.3251 61.6777 38.3483C61.6806 39.3629 62.0154 40.3487 62.631 41.1553C62.6476 41.1745 62.6599 41.197 62.667 41.2214C62.6742 41.2458 62.6759 41.2714 62.6722 41.2965C62.5868 41.6269 62.4092 41.9263 62.1602 42.1597C61.9112 42.393 61.601 42.5509 61.2658 42.6147H61.2128L61.2187 42.6265Z" fill="#404B7C"/>
<path d="M59.0648 39.8724C59.4516 39.8724 59.7651 39.4561 59.7651 38.9426C59.7651 38.4291 59.4516 38.0128 59.0648 38.0128C58.6781 38.0128 58.3646 38.4291 58.3646 38.9426C58.3646 39.4561 58.6781 39.8724 59.0648 39.8724Z" fill="#404B7C"/>
<path d="M59.2414 38.8956C59.3812 38.8956 59.4945 38.7823 59.4945 38.6425C59.4945 38.5028 59.3812 38.3895 59.2414 38.3895C59.1017 38.3895 58.9884 38.5028 58.9884 38.6425C58.9884 38.7823 59.1017 38.8956 59.2414 38.8956Z" fill="white"/>
<path d="M61.5894 44.5508C61.3829 44.6016 61.1721 44.6331 60.9598 44.6449C60.0408 44.7396 59.1175 44.5129 58.3469 44.0035C58.4943 43.8762 58.6496 43.7583 58.8118 43.6504C58.96 43.5522 59.1132 43.4619 59.2708 43.3797C59.9417 43.0384 60.8009 42.8442 61.2952 43.7093C61.4389 43.9717 61.5383 44.256 61.5894 44.5508Z" fill="#404B7C"/>
<path d="M61.3011 43.7093C60.6085 43.81 59.9017 43.6949 59.2767 43.3798C59.9476 43.0443 60.8127 42.8442 61.3011 43.7093Z" fill="white"/>
<path d="M60.9598 44.645C60.0408 44.7396 59.1175 44.5129 58.3469 44.0035C58.4943 43.8762 58.6496 43.7583 58.8118 43.6505C59.5239 43.5622 60.6126 43.6328 60.9598 44.645Z" fill="#F68D88"/>
<path d="M63.2018 39.8724C63.5886 39.8724 63.9021 39.4561 63.9021 38.9426C63.9021 38.4291 63.5886 38.0128 63.2018 38.0128C62.8151 38.0128 62.5016 38.4291 62.5016 38.9426C62.5016 39.4561 62.8151 39.8724 63.2018 39.8724Z" fill="#404B7C"/>
<path d="M63.4019 38.8956C63.5417 38.8956 63.655 38.7823 63.655 38.6425C63.655 38.5028 63.5417 38.3895 63.4019 38.3895C63.2622 38.3895 63.1489 38.5028 63.1489 38.6425C63.1489 38.7823 63.2622 38.8956 63.4019 38.8956Z" fill="white"/>
<path d="M60.1241 35.2764C60.1184 35.6195 60.0649 35.9602 59.9653 36.2886C59.8299 36.5769 58.5411 36.8476 57.7997 37.5126C57.7547 37.0734 57.8836 36.634 58.1586 36.2886C58.6177 35.7001 59.6946 35.7884 59.6946 35.7884C59.6946 35.7884 60.1241 34.7056 60.1241 35.2764Z" fill="#404B7C"/>
<path d="M62.6016 35.2764C62.6057 35.6177 62.6491 35.9573 62.7311 36.2886C62.8429 36.5769 63.908 36.8476 64.4965 37.5126C64.5348 37.0834 64.4315 36.6535 64.2022 36.2886C64.0439 36.1136 63.8475 35.9775 63.628 35.8908C63.4086 35.804 63.1722 35.769 62.937 35.7884C62.937 35.7884 62.6016 34.7056 62.6016 35.2764Z" fill="#404B7C"/>
<path d="M42.2227 60.5102C40.8515 66.9482 34.8668 70.6967 34.8668 70.6967C34.8668 70.6967 27.8051 69.1667 22.5088 64.8708C22.5088 64.8708 21.632 61.0811 24.1153 55.6789C24.9865 53.7238 26.3222 52.0112 28.0063 50.6902C29.6904 49.3692 31.6718 48.4798 33.7781 48.0993L40.9398 51.13C40.9398 51.13 43.588 54.0782 42.2227 60.5102Z" fill="#F68D88"/>
<path d="M35.9555 70.1495C35.9023 70.1503 35.8503 70.1344 35.8067 70.104C35.7631 70.0737 35.7302 70.0303 35.7126 69.9802C35.6951 69.9301 35.6937 69.8757 35.7088 69.8247C35.7238 69.7738 35.7546 69.7289 35.7966 69.6964C37.6797 68.2016 40.9869 64.9886 41.9579 60.4573C42.7935 56.5793 42.158 53.9841 41.4753 52.5011C41.4596 52.4708 41.4501 52.4375 41.4476 52.4034C41.445 52.3692 41.4494 52.335 41.4605 52.3026C41.4716 52.2702 41.4891 52.2404 41.512 52.215C41.535 52.1896 41.5628 52.1691 41.5939 52.1548C41.625 52.1404 41.6586 52.1325 41.6928 52.1316C41.727 52.1306 41.7611 52.1366 41.7929 52.1492C41.8247 52.1617 41.8537 52.1806 41.878 52.2047C41.9023 52.2288 41.9215 52.2576 41.9344 52.2893C42.6464 53.8487 43.3114 56.5439 42.4522 60.5573C41.4459 65.2651 38.0504 68.5488 36.1085 70.0848C36.0662 70.1229 36.0123 70.1457 35.9555 70.1495Z" fill="#ECBDBB"/>
<path d="M33.784 48.0993C33.4544 50.2571 32.8779 52.3699 32.0656 54.396C31.9244 54.7432 31.7773 55.1022 31.6184 55.4552L31.5831 55.5435C30.3132 58.5497 28.2856 61.1754 25.6983 63.1643C24.7217 63.8748 23.6551 64.4526 22.5265 64.8826C22.2926 63.4761 22.3125 62.0391 22.5853 60.6397C22.8753 58.9265 23.3938 57.26 24.1271 55.6847C24.997 53.7293 26.3315 52.016 28.0145 50.694C29.6976 49.372 31.6782 48.4812 33.784 48.0993Z" fill="#404B7C"/>
<path d="M25.6571 66.1302C25.6001 66.1287 25.5451 66.108 25.5013 66.0714C25.4575 66.0348 25.4273 65.9845 25.4157 65.9286C25.4041 65.8727 25.4118 65.8145 25.4375 65.7635C25.4631 65.7125 25.5053 65.6716 25.5571 65.6476C33.7604 61.9932 35.2787 50.1825 35.2905 50.0648C35.3039 50.0034 35.3397 49.9493 35.3908 49.9128C35.442 49.8763 35.5049 49.8602 35.5673 49.8675C35.6296 49.8749 35.6871 49.9052 35.7284 49.9525C35.7697 49.9998 35.7919 50.0609 35.7907 50.1237C35.7907 50.2472 34.2195 62.3404 25.7866 66.1066C25.7463 66.1258 25.7016 66.1339 25.6571 66.1302Z" fill="#ECBDBB"/>
<path d="M57.2759 28.968C57.2759 28.968 59.0413 29.0151 58.9589 29.8389C58.8765 30.6628 55.128 30.857 54.9985 30.9335C54.869 31.01 53.2743 34.1524 52.2032 34.3408C51.379 34.4579 50.5456 34.4973 49.714 34.4585C49.714 34.4585 35.7377 50.9652 32.0597 54.3901C32.0244 54.4843 31.9244 54.7844 31.6243 55.4317L31.589 55.52C30.319 58.5262 28.2915 61.1518 25.7042 63.1407C25.0863 62.6876 24.1094 61.9638 23.0502 61.0281L22.5971 60.6162C20.1255 58.3741 17.4773 55.2552 18.1953 52.6776C19.4487 48.0993 47.519 30.6863 47.519 30.6863C47.519 30.6863 49.6139 24.6486 50.379 23.9777C51.144 23.3069 51.3735 24.1601 51.3499 24.7427C51.2959 25.2982 51.2114 25.8502 51.0969 26.3963C51.2322 26.2551 53.4214 24.0424 54.463 23.8541C55.7351 23.6995 57.0257 23.8571 58.2233 24.3131C58.9118 24.6662 57.7172 25.3547 57.7172 25.3547C57.7172 25.3547 59.4827 25.3077 59.4297 26.0727C59.3767 26.8377 57.3112 27.1967 57.3112 27.1967C57.3112 27.1967 59.4003 27.0496 59.4827 27.8911C59.5651 28.7326 57.2759 28.968 57.2759 28.968Z" fill="#ECBDBB"/>
<path d="M32.0539 54.4136C32.0186 54.5078 31.9185 54.8079 31.6184 55.4552L31.5831 55.5435C30.3132 58.5497 28.2856 61.1753 25.6983 63.1643C25.0804 62.7111 24.1036 61.9873 23.0443 61.0516C28.1582 59.7452 31.8185 54.7314 32.0539 54.4136Z" fill="#404B7C"/>
<path d="M52.7682 26.7082C52.7316 26.7092 52.6956 26.6987 52.6652 26.6782C52.6348 26.6578 52.6115 26.6284 52.5986 26.5941C52.5857 26.5598 52.5837 26.5224 52.593 26.487C52.6023 26.4515 52.6224 26.4199 52.6505 26.3964C53.1889 25.9291 53.8095 25.5659 54.4806 25.3253C55.3774 25.2022 56.2831 25.157 57.1876 25.19C57.2108 25.1907 57.2336 25.1961 57.2547 25.2057C57.2759 25.2152 57.2949 25.2289 57.3108 25.2458C57.3266 25.2628 57.339 25.2827 57.3471 25.3044C57.3553 25.3261 57.3591 25.3492 57.3583 25.3724C57.3583 25.3958 57.3536 25.419 57.3443 25.4406C57.335 25.4621 57.3213 25.4814 57.3042 25.4974C57.2871 25.5135 57.2669 25.5258 57.2448 25.5336C57.2227 25.5415 57.1992 25.5447 57.1759 25.5431C56.301 25.5121 55.4252 25.5534 54.5571 25.6666C53.9414 25.8954 53.3715 26.2322 52.8741 26.6612C52.8451 26.6883 52.8078 26.7049 52.7682 26.7082Z" fill="#404B7C"/>
<path d="M53.2036 28.3324C53.1675 28.3321 53.1324 28.3207 53.1029 28.2998C53.0735 28.2789 53.0512 28.2495 53.039 28.2155C53.0268 28.1815 53.0253 28.1446 53.0348 28.1097C53.0442 28.0748 53.0641 28.0437 53.0918 28.0205C53.529 27.6562 54.0192 27.3605 54.5454 27.1437C55.3196 26.9876 56.1108 26.9322 56.8993 26.9789C56.9225 26.9797 56.9453 26.985 56.9664 26.9946C56.9875 27.0042 57.0065 27.0178 57.0224 27.0348C57.0382 27.0517 57.0506 27.0716 57.0588 27.0933C57.0669 27.1151 57.0707 27.1382 57.0699 27.1614C57.0669 27.2077 57.0464 27.2511 57.0125 27.2828C56.9786 27.3145 56.9339 27.3321 56.8875 27.332C56.1391 27.2867 55.388 27.3342 54.6513 27.4733C54.1666 27.6766 53.7145 27.9503 53.3096 28.2853C53.2806 28.3125 53.2432 28.3291 53.2036 28.3324Z" fill="#404B7C"/>
<path d="M53.6627 29.786C53.6251 29.7873 53.5881 29.7765 53.5571 29.7553C53.526 29.7341 53.5026 29.7036 53.4901 29.6681C53.4776 29.6327 53.4768 29.5942 53.4877 29.5582C53.4987 29.5223 53.5208 29.4907 53.5509 29.4682C53.8894 29.2029 54.2746 29.0033 54.6866 28.8797C55.128 28.8032 56.8875 28.8032 56.964 28.8032C57.0108 28.8032 57.0557 28.8218 57.0888 28.8549C57.122 28.888 57.1406 28.9329 57.1406 28.9798C57.1406 29.0266 57.122 29.0715 57.0888 29.1046C57.0557 29.1377 57.0108 29.1563 56.964 29.1563C56.3402 29.1563 55.0809 29.1563 54.7455 29.2328C54.3882 29.3477 54.0551 29.5272 53.7627 29.7624C53.7324 29.78 53.6976 29.7882 53.6627 29.786Z" fill="#404B7C"/>
</svg>
